<?xml version="1.0" standalone="no"?>
<!DOCTYPE svg PUBLIC "-//W3C//DTD SVG 1.1//EN" "http://www.w3.org/Graphics/SVG/1.1/DTD/svg11.dtd" >
<svg xmlns="http://www.w3.org/2000/svg" xmlns:xlink="http://www.w3.org/1999/xlink" version="1.1">
<metadata></metadata>
<defs>
<font id="20_dbregular" horiz-adv-x="890" >
<font-face units-per-em="1000" ascent="800" descent="-200" />
<missing-glyph horiz-adv-x="600" />
<glyph unicode=" "  horiz-adv-x="600" />
<glyph unicode="&#x09;" horiz-adv-x="600" />
<glyph unicode="&#xa0;" horiz-adv-x="600" />
<glyph unicode="!" horiz-adv-x="560" d="M250 210h60q130 0 130 -80v-50q0 -80 -130 -80h-60q-130 0 -130 80v50q0 80 130 80zM120 270l-40 530h400l-40 -530h-320z" />
<glyph unicode="&#x22;" horiz-adv-x="660" d="M300 800l-40 -360h-140l-40 360h220zM580 800l-40 -360h-140l-40 360h220z" />
<glyph unicode="#" horiz-adv-x="1225" d="M10 0l90 240h-90v40h105l95 240h-119v40h134l90 240h400l-90 -240h100l90 240h400l-90 -240h90v-40h-105l-95 -240h119v-40h-134l-90 -240h-400l90 240h-100l-90 -240h-400zM595 520l-95 -240h130l95 240h-130z" />
<glyph unicode="$" horiz-adv-x="980" d="M500 140q0 44 -35.5 74.5t-104.5 62.5v-247q140 0 140 110zM940 220q0 -66 -28 -111.5t-83 -71t-124.5 -36.5t-164.5 -11h-180v-60h-40v60q-65 2 -111.5 13.5t-85.5 38t-58.5 76t-19.5 122.5h40q0 -61 17.5 -103t52 -64t73 -31.5t92.5 -11.5v265q-40 17 -57 25 t-53.5 26.5t-54.5 32t-44.5 37t-39 46t-22 53t-9.5 65.5q0 66 28 111.5t83 71t124.5 36.5t164.5 11h180v60h40v-60q65 -2 111.5 -13.5t85.5 -38t58.5 -76t19.5 -122.5h-40q0 61 -17.5 103t-52 64t-73 31.5t-92.5 11.5v-265q40 -17 57 -25t53.5 -26.5t54.5 -32t44.5 -37 t39 -46t22 -53t9.5 -65.5zM480 660q0 -44 35.5 -74.5t104.5 -62.5v247q-140 0 -140 -110z" />
<glyph unicode="%" horiz-adv-x="920" d="M650 -10q-102 0 -161 35t-59 125t59 125t161 35t161 -35t59 -125t-59 -125t-161 -35zM100 0l670 800h50l-670 -800h-50zM630 30h40v240h-40v-240zM270 810q102 0 161 -35t59 -125t-59 -125t-161 -35t-161 35t-59 125t59 125t161 35zM290 770h-40v-240h40v240z" />
<glyph unicode="&#x26;" horiz-adv-x="1250" d="M1160 400h-180v-370q220 0 220 120h40q0 -80 -68 -120t-192 -40h-470q-86 0 -153 5.5t-128.5 20t-101.5 39t-63.5 63.5t-23.5 92q0 83 67 134.5t188 70.5v15q-116 15 -180.5 57.5t-64.5 102.5q0 58 35 101.5t98.5 69t144.5 37.5t182 12h90q86 0 149 -8.5t118.5 -30.5 t84 -65t28.5 -106h-40q0 42 -18.5 73t-48.5 49.5t-76 29.5t-92 14.5t-105 3.5h-90v-330h120v120h350v-120h180v-40zM510 30h241q-121 56 -121 210v160h-120v-370z" />
<glyph unicode="'" horiz-adv-x="420" d="M340 800l-40 -360h-180l-40 360h260z" />
<glyph unicode="(" horiz-adv-x="670" d="M490 860v-920h180v-40h-180q-79 0 -138.5 10.5t-119 42t-97.5 85.5t-61.5 145.5t-23.5 216.5t23.5 216.5t61.5 145.5t97.5 85.5t119 42t138.5 10.5h180v-40h-180z" />
<glyph unicode=")" horiz-adv-x="670" d="M180 -60v920h-180v40h180q79 0 138.5 -10.5t119 -42t97.5 -85.5t61.5 -145.5t23.5 -216.5t-23.5 -216.5t-61.5 -145.5t-97.5 -85.5t-119 -42t-138.5 -10.5h-180v40h180z" />
<glyph unicode="+" horiz-adv-x="560" d="M260 620h40v-230h230v-40h-230v-230h-40v230h-230v40h230v230z" />
<glyph unicode="," horiz-adv-x="460" d="M345 15q-23 -15 -85 -15h-60q-130 0 -130 80v50q0 80 130 80h60q130 0 130 -80v-50q0 -118 -37 -179t-123 -61v40q57 0 82 33t33 102z" />
<glyph unicode="-" horiz-adv-x="560" d="M30 350v40h500v-40h-500z" />
<glyph unicode="." horiz-adv-x="480" d="M210 210h60q130 0 130 -80v-50q0 -80 -130 -80h-60q-130 0 -130 80v50q0 80 130 80z" />
<glyph unicode="/" horiz-adv-x="395" d="M395 850l-350 -900h-45l350 900h45z" />
<glyph unicode="0" horiz-adv-x="1140" d="M470 770v-740h200v740h-200zM490 810h160q77 0 138.5 -9.5t119.5 -37t96.5 -72t62 -118.5t23.5 -173t-23.5 -173t-62 -118.5t-96.5 -72t-119.5 -37t-138.5 -9.5h-160q-77 0 -138.5 9.5t-119.5 37t-96.5 72t-62 118.5t-23.5 173t23.5 173t62 118.5t96.5 72t119.5 37 t138.5 9.5z" />
<glyph unicode="1" horiz-adv-x="616" d="M36 570l-26 31l236 199h290v-800h-400v654z" />
<glyph unicode="2" horiz-adv-x="1030" d="M530 40h430v-40h-900v80q0 63 26.5 120t69 100t93.5 81.5t102 71t93.5 62.5t69 62t26.5 63q0 65 -43.5 97.5t-156.5 32.5q-42 0 -74.5 -4t-67 -17t-57 -35t-37 -61t-14.5 -93h-40q0 77 22.5 129t65.5 77t90 34.5t112 9.5h210q106 0 182 -11t133.5 -36.5t86 -71 t28.5 -111.5q0 -68 -33.5 -130t-83.5 -105t-108 -85.5t-108 -75t-83.5 -70.5t-33.5 -74z" />
<glyph unicode="3" horiz-adv-x="1060" d="M420 30h140v740h-140q-60 0 -105 -4t-91.5 -17t-76 -35t-48.5 -61t-19 -93h-40q0 63 20 108.5t52.5 72.5t83.5 43t103 21t121 5h140q101 0 182 -12t144.5 -37.5t98.5 -69t35 -101.5q0 -60 -64.5 -102.5t-180.5 -57.5v-15q121 -19 188 -70.5t67 -134.5q0 -53 -23.5 -92 t-63.5 -63.5t-101.5 -39t-128.5 -20t-153 -5.5h-140q-69 0 -121 5t-103 21t-83.5 43t-52.5 72.5t-20 108.5h40q0 -54 19 -93t48.5 -61t76 -35t91.5 -17t105 -4z" />
<glyph unicode="4" horiz-adv-x="990" d="M0 220l520 580h380v-580h90v-40h-90v-180h-400v180h-500v40zM55 220h445v495z" />
<glyph unicode="5" horiz-adv-x="1060" d="M460 480h120q89 0 152.5 -6t119 -21.5t88.5 -42.5t51.5 -70.5t18.5 -104.5q0 -63 -23.5 -108t-60.5 -71t-96 -41.5t-116 -20t-134 -4.5h-150q-69 0 -121 5t-103 21t-83.5 43t-52.5 72.5t-20 108.5h40q0 -54 19 -93t48.5 -61t76 -35t91.5 -17t105 -4h160v410h-510v360h870 v-40h-490v-280z" />
<glyph unicode="6" horiz-adv-x="1120" d="M490 430v-400h160v400h-160zM640 -10h-140q-80 0 -143 9.5t-122.5 36.5t-98.5 70.5t-62.5 115.5t-23.5 168q0 99 23.5 173t62.5 118.5t98.5 71.5t122 37t143.5 10h160q86 0 149 -8.5t118.5 -30.5t84 -65t28.5 -106h-40q0 42 -18.5 73t-48.5 49.5t-76 29.5t-92 14.5 t-105 3.5h-170v-290h150q95 0 160.5 -6t120 -21t85.5 -42t47.5 -69t16.5 -102t-16.5 -102t-47.5 -69t-85.5 -42t-120 -21t-160.5 -6z" />
<glyph unicode="7" horiz-adv-x="885" d="M10 760v40h865v-40l-375 -760h-445l375 760h-420z" />
<glyph unicode="8" horiz-adv-x="1120" d="M640 40v720h-160v-720h160zM480 800h160q108 0 199.5 -22.5t151 -69t59.5 -108.5q0 -63 -56 -108.5t-139 -61.5v-15q107 -20 171 -69.5t64 -125.5q0 -72 -61.5 -123t-160.5 -74t-228 -23h-160q-129 0 -228 23t-160.5 74t-61.5 123q0 76 64 125.5t171 69.5v15 q-83 16 -139 61.5t-56 108.5q0 62 59.5 108.5t151 69t199.5 22.5z" />
<glyph unicode="9" horiz-adv-x="1120" d="M630 360v400h-160v-400h160zM480 800h140q80 0 143 -9.5t122.5 -36.5t98.5 -70.5t62.5 -115.5t23.5 -168q0 -99 -23.5 -173t-62.5 -118.5t-98.5 -71.5t-122 -37t-143.5 -10h-160q-86 0 -149 8.5t-118.5 30.5t-84 65t-28.5 106h40q0 -42 18.5 -73t48.5 -49.5t76 -29.5 t92 -14.5t105 -3.5h170v290h-150q-95 0 -160.5 6t-120 21t-85.5 42t-47.5 69t-16.5 102t16.5 102t47.5 69t85.5 42t120 21t160.5 6z" />
<glyph unicode=":" horiz-adv-x="460" d="M200 210h60q130 0 130 -80v-50q0 -80 -130 -80h-60q-130 0 -130 80v50q0 80 130 80zM200 600h60q130 0 130 -80v-50q0 -80 -130 -80h-60q-130 0 -130 80v50q0 80 130 80z" />
<glyph unicode=";" horiz-adv-x="480" d="M210 600h60q130 0 130 -80v-50q0 -80 -130 -80h-60q-130 0 -130 80v50q0 80 130 80zM355 15q-23 -15 -85 -15h-60q-130 0 -130 80v50q0 80 130 80h60q130 0 130 -80v-50q0 -118 -37 -179t-123 -61v40q57 0 82 33t33 102z" />
<glyph unicode="&#x3c;" horiz-adv-x="470" d="M30 320l390 225l20 -35l-365 -210l365 -210l-20 -35l-390 225v40z" />
<glyph unicode="=" horiz-adv-x="560" d="M30 450v40h500v-40h-500zM30 250v40h500v-40h-500z" />
<glyph unicode="&#x3e;" horiz-adv-x="470" d="M50 545l390 -225v-40l-390 -225l-20 35l365 210l-365 210z" />
<glyph unicode="?" horiz-adv-x="980" d="M585 270h-320v40q0 54 18 95.5t45.5 64t59 44t59 37.5t45.5 41.5t18 57.5q0 58 -44 89t-156 31q-42 0 -74.5 -4t-67 -17t-57 -35t-37 -61t-14.5 -93h-40q0 77 22.5 129t65.5 77t90 34.5t112 9.5h210q86 0 149 -5.5t118.5 -20t89.5 -39t53.5 -63.5t19.5 -92 q0 -54 -27 -94.5t-67.5 -62t-88 -41t-88 -33t-67.5 -36.5t-27 -53zM395 210h60q130 0 130 -80v-50q0 -80 -130 -80h-60q-130 0 -130 80v50q0 80 130 80z" />
<glyph unicode="@" horiz-adv-x="1660" d="M885 650h245v-460h80v570h-760v-720h720q340 0 340 110h40q0 -150 -380 -150h-680q-77 0 -138.5 9.5t-119.5 36.5t-96.5 70.5t-62 115.5t-23.5 168t23.5 168t62 115.5t96.5 70.5t119.5 36.5t138.5 9.5h680q440 0 440 -325t-440 -325h-285l-10 30h-5q-70 -35 -155 -35 q-43 0 -75.5 9.5t-64 35t-48.5 78.5t-17 132t17 132t48.5 78.5t64 35t75.5 9.5q85 0 155 -35h5zM790 605v-410q47 0 80 25v360q-33 25 -80 25z" />
<glyph unicode="A" horiz-adv-x="1118" d="M364 710l-300 -710h-44l339 800h404l335 -800h-430z" />
<glyph unicode="B" horiz-adv-x="1140" d="M640 40v720h-160v-720h160zM855 430v-15q120 -19 187.5 -68.5t67.5 -126.5q0 -108 -129 -164t-341 -56h-560v800h560q117 0 213.5 -22.5t156.5 -68.5t60 -109q0 -64 -59.5 -109.5t-155.5 -60.5z" />
<glyph unicode="C" horiz-adv-x="1090" d="M490 810h180q69 0 121 -5t103 -21t83.5 -43t52.5 -72.5t20 -108.5h-40q0 54 -19 93t-48.5 61t-76 35t-91.5 17t-105 4h-180v-740h180q60 0 105 4t91.5 17t76 35t48.5 61t19 93h40q0 -63 -20 -108.5t-52.5 -72.5t-83.5 -43t-103 -21t-121 -5h-180q-77 0 -138.5 9.5 t-119.5 37t-96.5 72t-62 118.5t-23.5 173t23.5 173t62 118.5t96.5 72t119.5 37t138.5 9.5z" />
<glyph unicode="D" horiz-adv-x="1130" d="M80 0v800h560q77 0 138.5 -9.5t119.5 -36.5t96.5 -70.5t62 -115.5t23.5 -168t-23.5 -168t-62 -115.5t-96.5 -70.5t-119.5 -36.5t-138.5 -9.5h-560zM650 760h-170v-720h170v720z" />
<glyph unicode="E" d="M80 0v800h770v-40h-370v-320h280v-40h-280v-360h390v-40h-790z" />
<glyph unicode="F" horiz-adv-x="860" d="M80 0v800h770v-40h-370v-350h320v-40h-320v-370h-400z" />
<glyph unicode="G" horiz-adv-x="1090" d="M670 360v40h380v-160q0 -63 -20 -108.5t-52.5 -72.5t-83.5 -43t-103 -21t-121 -5h-180q-77 0 -138.5 9.5t-119.5 37t-96.5 72t-62 118.5t-23.5 173t23.5 173t62 118.5t96.5 72t119.5 37t138.5 9.5h180q69 0 121 -5t103 -21t83.5 -43t52.5 -72.5t20 -108.5h-40 q0 54 -19 93t-48.5 61t-76 35t-91.5 17t-105 4h-180v-740h180q60 0 105 4t91.5 17t76 35t48.5 61t19 93v120h-340z" />
<glyph unicode="H" horiz-adv-x="1109" d="M80 0v800h380v-380h189v380h380v-800h-380v380h-189v-380h-380z" />
<glyph unicode="I" horiz-adv-x="560" d="M80 0v800h400v-800h-400z" />
<glyph unicode="J" horiz-adv-x="800" d="M740 800v-500q0 -66 -22.5 -119t-58.5 -86t-85.5 -55t-99.5 -31t-104 -9q-62 0 -111 5t-97.5 20.5t-80 41.5t-51.5 69.5t-20 103.5h40q0 -50 18 -87.5t46 -58.5t68.5 -33.5t77 -16.5t80.5 -4v760h400z" />
<glyph unicode="K" horiz-adv-x="1175" d="M710 0l-210 365l-20 -15v-350h-400v800h400v-400l480 400h65l-225 -185v-10l375 -605h-465z" />
<glyph unicode="L" horiz-adv-x="830" d="M80 0v800h400v-760h340v-40h-740z" />
<glyph unicode="M" horiz-adv-x="1400" d="M920 0v690l-270 -690h-135l-395 650v-650h-40v800h420l255 -425l165 425h400v-800h-400z" />
<glyph unicode="N" horiz-adv-x="1010" d="M80 800h415l395 -650v650h40v-800h-415l-395 650v-650h-40v800z" />
<glyph unicode="O" horiz-adv-x="1140" d="M470 770v-740h200v740h-200zM490 810h160q77 0 138.5 -9.5t119.5 -37t96.5 -72t62 -118.5t23.5 -173t-23.5 -173t-62 -118.5t-96.5 -72t-119.5 -37t-138.5 -9.5h-160q-77 0 -138.5 9.5t-119.5 37t-96.5 72t-62 118.5t-23.5 173t23.5 173t62 118.5t96.5 72t119.5 37 t138.5 9.5z" />
<glyph unicode="P" horiz-adv-x="1110" d="M80 0v800h560q97 0 176.5 -14.5t142 -44t97 -81t34.5 -120.5t-34.5 -120.5t-97 -81t-142 -44t-176.5 -14.5h-160v-280h-400zM640 320v440h-160v-440h160z" />
<glyph unicode="Q" horiz-adv-x="1140" d="M490 0q-77 0 -138.5 9.5t-119.5 36.5t-96.5 70.5t-62 115.5t-23.5 168q0 99 23.5 173t62 118.5t96.5 72t119.5 37t138.5 9.5h160q77 0 138.5 -9.5t119.5 -37t96.5 -72t62 -118.5t23.5 -173q0 -149 -63.5 -230t-196.5 -120v-10h240v-40h-580zM470 770v-730h200v730h-200z " />
<glyph unicode="R" horiz-adv-x="1120" d="M665 0l-175 320h-10v-320h-400v800h550q130 0 228.5 -24t160 -79t61.5 -137q0 -72 -45 -121.5t-120 -73.5v-10l195 -355h-445zM630 360v400h-150v-400h150z" />
<glyph unicode="S" horiz-adv-x="980" d="M480 660q0 -35 25.5 -63.5t66 -49.5t89.5 -42t98 -46t89.5 -55.5t66 -77.5t25.5 -106q0 -66 -28 -111.5t-83 -71t-124.5 -36.5t-164.5 -11h-180q-59 0 -102.5 5t-85.5 21t-68.5 43t-42.5 72.5t-16 108.5h40q0 -54 15 -93t38 -61t61 -35t74.5 -17t86.5 -4q140 0 140 110 q0 35 -25.5 63.5t-66 49.5t-89.5 42t-98 46t-89.5 55.5t-66 77.5t-25.5 106q0 66 28 111.5t83 71t124.5 36.5t164.5 11h180q65 0 112 -9.5t90 -34.5t65.5 -77t22.5 -129h-40q0 54 -14.5 93t-37 61t-57 35t-67 17t-74.5 4q-140 0 -140 -110z" />
<glyph unicode="T" horiz-adv-x="940" d="M670 760v-760h-400v760h-260v40h920v-40h-260z" />
<glyph unicode="U" horiz-adv-x="980" d="M540 -10h-80q-63 0 -118.5 9t-108 30.5t-90.5 55t-60.5 86t-22.5 119.5v510h400v-770h80q62 0 105.5 4.5t91 19.5t76.5 42.5t48 76.5t19 117v510h40v-510q0 -77 -20 -132.5t-52 -87.5t-84 -50.5t-103 -24t-121 -5.5z" />
<glyph unicode="V" horiz-adv-x="1020" d="M1000 800l-305 -800h-370l-305 800h430l254 -666l256 666h40z" />
<glyph unicode="W" horiz-adv-x="1405" d="M806 0l-119 311l-92 -311h-390l-185 800h410l158 -684l203 684h140l256 -680l158 680h40l-185 -800h-394z" />
<glyph unicode="X" horiz-adv-x="925" d="M885 800l-210 -365l250 -435h-465l-185 325l-190 -325h-45l210 365l-250 435h465l185 -325l190 325h45z" />
<glyph unicode="Y" horiz-adv-x="945" d="M700 395v-395h-400v285l-290 515h455l215 -365l210 365h45z" />
<glyph unicode="Z" horiz-adv-x="880" d="M40 0v60l354 700h-354v40h800v-50l-360 -710h360v-40h-800z" />
<glyph unicode="[" horiz-adv-x="660" d="M660 900v-40h-180v-920h180v-40h-580v1000h580z" />
<glyph unicode="\" horiz-adv-x="775" d="M775 -50h-430l-345 900h430z" />
<glyph unicode="]" horiz-adv-x="660" d="M0 860v40h580v-1000h-580v40h180v920h-180z" />
<glyph unicode="^" horiz-adv-x="400" d="M20 530l160 270h40l160 -270h-50l-130 225l-130 -225h-50z" />
<glyph unicode="_" horiz-adv-x="600" d="M0 -40v40h600v-40h-600z" />
<glyph unicode="`" horiz-adv-x="360" d="M230 820l100 -350l-150 -55l-150 335z" />
<glyph unicode="a" horiz-adv-x="950" d="M310 360h220v210h-150q-220 0 -220 -120h-40q0 80 68 120t192 40h150q169 0 259.5 -57.5t90.5 -192.5v-360h-330l-10 40h-10q-100 -50 -220 -50q-48 0 -93.5 10.5t-86 31t-65.5 58t-25 85.5t25 85.5t65.5 58t86 31t93.5 10.5zM420 40q62 8 110 40v240h-110v-280z" />
<glyph unicode="b" horiz-adv-x="990" d="M570 35v525h-140v-475q64 -42 140 -50zM650 -10q-120 0 -220 50h-10l-10 -40h-330v800h350v-200h160q68 0 118 -7t95.5 -27t74 -53.5t45.5 -88t17 -129.5q0 -305 -290 -305z" />
<glyph unicode="c" d="M50 300q0 91 24.5 153.5t73 96t108.5 47t144 13.5h200q126 0 193 -44.5t67 -145.5h-40q0 84 -56.5 117t-163.5 33h-180v-540h180q107 0 163.5 33t56.5 117h40q0 -101 -67 -145.5t-193 -44.5h-200q-84 0 -144 13.5t-108.5 47t-73 96t-24.5 153.5z" />
<glyph unicode="d" horiz-adv-x="990" d="M420 560v-525q76 8 140 50v475h-140zM340 -10q-290 0 -290 305q0 75 17 129.5t45.5 88t74 53.5t95.5 27t118 7h160v200h350v-800h-330l-10 40h-10q-100 -50 -220 -50z" />
<glyph unicode="e" d="M50 300q0 92 25 153.5t78.5 95.5t123.5 47.5t173 13.5q79 0 134 -5t102.5 -18.5t76.5 -36.5t49.5 -60t29 -88t8.5 -122h-430v-250h160q107 0 163.5 33t56.5 117h40q0 -101 -67 -145.5t-193 -44.5h-180q-84 0 -144 13.5t-108.5 47t-73 96t-24.5 153.5zM420 570v-250h390 q0 56 -7.5 95t-27.5 67.5t-47 45t-74 26.5t-100 13t-134 3z" />
<glyph unicode="f" horiz-adv-x="660" d="M430 470h180v-40h-180v-430h-350v560q0 135 90.5 192.5t259.5 57.5q124 0 192 -40t68 -120h-40q0 120 -220 120v-300z" />
<glyph unicode="g" horiz-adv-x="970" d="M410 560v-420h160v420h-160zM570 0h-150q-93 0 -156 12t-114 44t-75.5 92t-24.5 152t24.5 152t75.5 92t114 44t156 12h500v-40h-100v-10q52 -34 81 -87t29 -113q0 -77 -24.5 -127.5t-75.5 -76.5t-114 -36t-156 -10h-150v-60h270q104 0 162 -26.5t58 -98.5t-58 -98.5 t-162 -26.5h-320q-124 0 -192 40t-68 120h40q0 -120 220 -120h210v170z" />
<glyph unicode="h" horiz-adv-x="990" d="M920 0h-350v560h-140v-560h-350v800h350v-200h160q330 0 330 -215v-385z" />
<glyph unicode="i" horiz-adv-x="510" d="M430 600v-600h-350v600h350zM80 720v40h350v-40h-350z" />
<glyph unicode="j" horiz-adv-x="520" d="M90 -170v770h350v-560q0 -135 -90.5 -192.5t-259.5 -57.5q-124 0 -192 40t-68 120h40q0 -120 220 -120zM90 720v40h350v-40h-350z" />
<glyph unicode="k" horiz-adv-x="980" d="M430 800v-450l385 250h75l-160 -105v-10l240 -485h-395l-145 300v-300h-350v800h350z" />
<glyph unicode="l" horiz-adv-x="510" d="M430 800v-800h-350v800h350z" />
<glyph unicode="m" horiz-adv-x="1380" d="M600 610q128 0 195 -60q36 24 105 42t140 18q51 0 97.5 -12.5t86 -38t63 -70.5t23.5 -104v-385h-350v565q-55 -8 -100 -29v-536h-330v560q-25 -4 -54.5 -16t-45.5 -24v-520h-350v600h330l10 -40h10q100 50 170 50z" />
<glyph unicode="n" horiz-adv-x="990" d="M650 610q51 0 97.5 -12.5t86 -38t63 -70.5t23.5 -104v-385h-350v565q-76 -8 -140 -50v-515h-350v600h330l10 -40h10q100 50 220 50z" />
<glyph unicode="o" horiz-adv-x="960" d="M410 570v-540h140v540h-140zM420 610h120q91 0 155.5 -13.5t115 -47.5t75 -95.5t24.5 -153.5q0 -95 -24.5 -157.5t-75.5 -95.5t-114 -45t-156 -12h-120q-93 0 -156 12t-114 45t-75.5 95.5t-24.5 157.5q0 92 24.5 153.5t75 95.5t115 47.5t155.5 13.5z" />
<glyph unicode="p" horiz-adv-x="990" d="M570 40v525q-76 -8 -140 -50v-475h140zM650 610q290 0 290 -305q0 -75 -17 -129.5t-45.5 -88t-74 -53.5t-95.5 -27t-118 -7h-160v-200h-350v800h330l10 -40h10q100 50 220 50z" />
<glyph unicode="q" horiz-adv-x="990" d="M420 565v-525h140v475q-64 42 -140 50zM340 610q120 0 220 -50h10l10 40h330v-800h-350v200h-160q-68 0 -118 7t-95.5 27t-74 53.5t-45.5 88t-17 129.5q0 305 290 305z" />
<glyph unicode="r" horiz-adv-x="770" d="M430 515v-515h-350v600h330l10 -40h10q70 50 160 50q180 0 180 -110h-40q0 70 -140 70q-96 0 -160 -55z" />
<glyph unicode="s" horiz-adv-x="850" d="M440 490q0 -38 38 -68t92.5 -51.5t109 -45.5t92.5 -63.5t38 -91.5q0 -102 -74.5 -141t-245.5 -39h-230q-97 0 -158.5 42.5t-61.5 127.5h40q0 -69 51.5 -99.5t128.5 -30.5q150 0 150 80q0 38 -38 68t-92.5 51.5t-109 45.5t-92.5 63.5t-38 91.5q0 102 74.5 141t245.5 39 h220q90 0 150 -42.5t60 -127.5h-40q0 69 -50 99.5t-120 30.5q-140 0 -140 -80z" />
<glyph unicode="t" horiz-adv-x="690" d="M600 470h-180v-440q220 0 220 120h40q0 -80 -68 -120t-192 -40q-169 0 -259.5 57.5t-90.5 192.5v560h350v-290h180v-40z" />
<glyph unicode="u" horiz-adv-x="1000" d="M350 -10q-51 0 -97.5 12.5t-86 38t-63 70.5t-23.5 104v385h350v-565q76 8 140 50v515h350v-600h-330l-10 40h-10q-100 -50 -220 -50z" />
<glyph unicode="v" horiz-adv-x="800" d="M385 600l180 -500l180 500h45l-220 -600h-340l-220 600h375z" />
<glyph unicode="w" horiz-adv-x="1230" d="M530 0h-340l-180 600h370l145 -500l165 500h130l220 -455l135 455h45l-180 -600h-325l-110 225z" />
<glyph unicode="x" horiz-adv-x="810" d="M390 0l-155 240l-165 -240h-45l180 280l-205 320h420l155 -240l165 240h45l-180 -280l205 -320h-420z" />
<glyph unicode="y" horiz-adv-x="830" d="M820 600l-240 -630q-17 -45 -31 -73t-35.5 -49t-41.5 -31.5t-58.5 -17t-75.5 -8t-103 -1.5v40q66 0 102.5 2t72 9.5t55.5 23.5t37.5 40.5t32.5 64.5l15 40h-290l-250 590h370l205 -495l190 495h45z" />
<glyph unicode="z" horiz-adv-x="750" d="M40 560v40h670v-65l-280 -495h280v-40h-670v65l280 495h-280z" />
<glyph unicode="{" horiz-adv-x="715" d="M535 190v-250h180v-40h-180q-94 0 -170.5 14.5t-138.5 45.5t-96.5 86t-34.5 129q0 93 -13 140t-52 65v40q39 18 52 65t13 140q0 74 34.5 129t96.5 86t138.5 45.5t170.5 14.5h180v-40h-180v-250q0 -83 -67 -134.5t-188 -70.5v-10q121 -19 188 -70.5t67 -134.5z" />
<glyph unicode="}" horiz-adv-x="715" d="M180 -60v250q0 83 67 134.5t188 70.5v10q-121 19 -188 70.5t-67 134.5v250h-180v40h180q94 0 170.5 -14.5t138.5 -45.5t96.5 -86t34.5 -129q0 -93 13 -140t52 -65v-40q-39 -18 -52 -65t-13 -140q0 -74 -34.5 -129t-96.5 -86t-138.5 -45.5t-170.5 -14.5h-180v40h180z" />
<glyph unicode="&#xa4;" horiz-adv-x="1140" d="M20 340v40h70v420h560q129 0 228 -23.5t160.5 -76.5t61.5 -130t-61.5 -130t-160.5 -76.5t-228 -23.5h-160v-40h460l160 -300h-455l-140 260h-25v-260h-400v260h-70v40h70v40h-70zM650 380v380h-160v-380h160z" />
<glyph unicode="&#xab;" horiz-adv-x="460" d="M360 545l-290 -245l290 -245l-25 -30l-305 255v40l305 255zM430 495l-230 -195l230 -195l-25 -30l-245 205v40l245 205z" />
<glyph unicode="&#xb6;" horiz-adv-x="1250" d="M1160 760v-760h-360v760h-80v-760h-360v260q-77 0 -133 11.5t-102.5 40.5t-70.5 83.5t-24 134.5q0 77 24 130.5t70 83.5t103.5 43t132.5 13h870v-40h-70z" />
<glyph unicode="&#xbb;" horiz-adv-x="460" d="M390 300l-290 245l25 30l305 -255v-40l-305 -255l-25 30zM260 300l-230 195l25 30l245 -205v-40l-245 -205l-25 30z" />
<glyph unicode="&#x401;" d="M80 0v800h770v-40h-370v-320h280v-40h-280v-360h390v-40h-790zM90 920v40h320v-40h-320zM520 920v40h320v-40h-320z" />
<glyph unicode="&#x410;" horiz-adv-x="1118" d="M364 710l-300 -710h-44l339 800h404l335 -800h-430z" />
<glyph unicode="&#x411;" horiz-adv-x="1120" d="M80 0v800h890v-40h-490v-280h160q130 0 228.5 -24t160 -79t61.5 -137t-61.5 -137t-160 -79t-228.5 -24h-560zM640 40v400h-160v-400h160z" />
<glyph unicode="&#x412;" horiz-adv-x="1140" d="M640 40v720h-160v-720h160zM855 430v-15q120 -19 187.5 -68.5t67.5 -126.5q0 -108 -129 -164t-341 -56h-560v800h560q117 0 213.5 -22.5t156.5 -68.5t60 -109q0 -64 -59.5 -109.5t-155.5 -60.5z" />
<glyph unicode="&#x413;" horiz-adv-x="876" d="M80 0v800h786v-40h-386v-760h-400z" />
<glyph unicode="&#x414;" horiz-adv-x="1080" d="M170 800h810v-760h70v-40h-1070v40h60q57 93 83.5 179.5t36.5 213.5t10 367zM210 760q0 -219 -10 -338t-35.5 -204t-79.5 -178h495v720h-370z" />
<glyph unicode="&#x415;" d="M80 0v800h770v-40h-370v-320h280v-40h-280v-360h390v-40h-790z" />
<glyph unicode="&#x416;" horiz-adv-x="1660" d="M1030 0h-400v350l-30 20l-165 -370h-435l280 630v10l-195 160h65l480 -400v400h400v-400l480 400h65l-195 -160v-10l280 -630h-435l-165 370l-30 -20v-350z" />
<glyph unicode="&#x417;" horiz-adv-x="1080" d="M420 30h160v740h-160q-60 0 -105 -4t-91.5 -17t-76 -35t-48.5 -61t-19 -93h-40q0 63 20 108.5t52.5 72.5t83.5 43t103 21t121 5h160q207 0 333.5 -50t126.5 -150q0 -74 -63.5 -119.5t-181.5 -60.5v-15q121 -19 188 -70.5t67 -134.5q0 -53 -23.5 -92t-63.5 -63.5 t-101.5 -39t-128.5 -20t-153 -5.5h-160q-69 0 -121 5t-103 21t-83.5 43t-52.5 72.5t-20 108.5h40q0 -54 19 -93t48.5 -61t76 -35t91.5 -17t105 -4z" />
<glyph unicode="&#x418;" horiz-adv-x="1150" d="M80 0v800h370v-670l240 670h370v-800h-370v670l-240 -670h-370z" />
<glyph unicode="&#x419;" horiz-adv-x="1160" d="M80 0v800h370v-678l240 678h370v-800h-370v670l-240 -670h-370zM570 980q83 0 131.5 29t48.5 81h40q0 -74 -57 -112t-163 -38t-163 38t-57 112h40q0 -52 48.5 -81t131.5 -29z" />
<glyph unicode="&#x41a;" horiz-adv-x="1175" d="M710 0l-210 365l-20 -15v-350h-400v800h400v-400l480 400h65l-225 -185v-10l375 -605h-465z" />
<glyph unicode="&#x41b;" horiz-adv-x="1020" d="M180 800h760v-800h-400v760h-320q0 -760 -220 -760v40q88 0 134 200.5t46 559.5z" />
<glyph unicode="&#x41c;" horiz-adv-x="1400" d="M920 0v690l-270 -690h-135l-395 650v-650h-40v800h420l255 -425l165 425h400v-800h-400z" />
<glyph unicode="&#x41d;" horiz-adv-x="1109" d="M80 0v800h380v-380h189v380h380v-800h-380v380h-189v-380h-380z" />
<glyph unicode="&#x41e;" horiz-adv-x="1140" d="M470 770v-740h200v740h-200zM490 810h160q77 0 138.5 -9.5t119.5 -37t96.5 -72t62 -118.5t23.5 -173t-23.5 -173t-62 -118.5t-96.5 -72t-119.5 -37t-138.5 -9.5h-160q-77 0 -138.5 9.5t-119.5 37t-96.5 72t-62 118.5t-23.5 173t23.5 173t62 118.5t96.5 72t119.5 37 t138.5 9.5z" />
<glyph unicode="&#x41f;" horiz-adv-x="1109" d="M80 0v800h949v-800h-380v760h-189v-760h-380z" />
<glyph unicode="&#x420;" horiz-adv-x="1110" d="M80 0v800h560q97 0 176.5 -14.5t142 -44t97 -81t34.5 -120.5t-34.5 -120.5t-97 -81t-142 -44t-176.5 -14.5h-160v-280h-400zM640 320v440h-160v-440h160z" />
<glyph unicode="&#x421;" horiz-adv-x="1090" d="M490 810h180q69 0 121 -5t103 -21t83.5 -43t52.5 -72.5t20 -108.5h-40q0 54 -19 93t-48.5 61t-76 35t-91.5 17t-105 4h-180v-740h180q60 0 105 4t91.5 17t76 35t48.5 61t19 93h40q0 -63 -20 -108.5t-52.5 -72.5t-83.5 -43t-103 -21t-121 -5h-180q-77 0 -138.5 9.5 t-119.5 37t-96.5 72t-62 118.5t-23.5 173t23.5 173t62 118.5t96.5 72t119.5 37t138.5 9.5z" />
<glyph unicode="&#x422;" horiz-adv-x="940" d="M670 760v-760h-400v760h-260v40h920v-40h-260z" />
<glyph unicode="&#x423;" horiz-adv-x="915" d="M915 800l-335 -630q-24 -45 -41 -72.5t-40 -49.5t-42 -32t-55.5 -17t-70.5 -8t-96 -1v40q53 0 83.5 1t62 6.5t49 13.5t37.5 25t34.5 38.5t33.5 55.5l25 45h-214l-346 585h455l220 -370l195 370h45z" />
<glyph unicode="&#x424;" horiz-adv-x="1430" d="M520 0v110h-80q-72 0 -133.5 9t-117 30t-94.5 53.5t-62 83t-23 114.5t23 114.5t62 83t94.5 53.5t117 30t133.5 9h80v110h390v-110h80q72 0 133.5 -9t117 -30t94.5 -53.5t62 -83t23 -114.5t-23 -114.5t-62 -83t-94.5 -53.5t-117 -30t-133.5 -9h-80v-110h-390zM1020 150 v500h-120v-500h120zM410 650v-500h120v500h-120z" />
<glyph unicode="&#x425;" horiz-adv-x="925" d="M885 800l-210 -365l250 -435h-465l-185 325l-190 -325h-45l210 365l-250 435h465l185 -325l190 325h45z" />
<glyph unicode="&#x426;" horiz-adv-x="1160" d="M1130 0h-1050v800h380v-760h220v760h380v-760h70v-40z" />
<glyph unicode="&#x427;" horiz-adv-x="1100" d="M620 0v290h-180q-63 0 -118.5 9t-108 30.5t-90.5 55t-60.5 86t-22.5 119.5v210h400v-470h180v470h380v-800h-380z" />
<glyph unicode="&#x428;" horiz-adv-x="1560" d="M590 40v760h380v-760h130v760h380v-800h-1400v800h380v-760h130z" />
<glyph unicode="&#x429;" horiz-adv-x="1580" d="M590 40v760h380v-760h130v760h380v-760h70v-40h-1470v800h380v-760h130z" />
<glyph unicode="&#x42a;" horiz-adv-x="1190" d="M720 40v400h-160v-400h160zM0 800h560v-320h160q130 0 228.5 -24t160 -79t61.5 -137t-61.5 -137t-160 -79t-228.5 -24h-560v760h-160v40z" />
<glyph unicode="&#x42b;" horiz-adv-x="1560" d="M80 0v800h400v-320h120q130 0 228.5 -24t160 -79t61.5 -137t-61.5 -137t-160 -79t-228.5 -24h-520zM620 40v400h-140v-400h140zM1100 0v800h380v-800h-380z" />
<glyph unicode="&#x42c;" horiz-adv-x="1110" d="M80 0v800h400v-320h160q130 0 228.5 -24t160 -79t61.5 -137t-61.5 -137t-160 -79t-228.5 -24h-560zM640 40v400h-160v-400h160z" />
<glyph unicode="&#x42d;" horiz-adv-x="1090" d="M420 810h180q77 0 138.5 -9.5t119.5 -37t96.5 -72t62 -118.5t23.5 -173t-23.5 -173t-62 -118.5t-96.5 -72t-119.5 -37t-138.5 -9.5h-180q-69 0 -121 5t-103 21t-83.5 43t-52.5 72.5t-20 108.5h40q0 -54 19 -93t48.5 -61t76 -35t91.5 -17t105 -4h180v740h-180 q-60 0 -105 -4t-91.5 -17t-76 -35t-48.5 -61t-19 -93h-40q0 63 20 108.5t52.5 72.5t83.5 43t103 21t121 5z" />
<glyph unicode="&#x42e;" horiz-adv-x="1550" d="M930 770v-740h160v740h-160zM460 420h60q3 93 27.5 163t63.5 112.5t96 69t117.5 36t135.5 9.5h100q77 0 138.5 -9.5t119.5 -37t96.5 -72t62 -118.5t23.5 -173t-23.5 -173t-62 -118.5t-96.5 -72t-119.5 -37t-138.5 -9.5h-100q-75 0 -135.5 9.5t-117.5 36t-96 69 t-63.5 112.5t-27.5 163h-60v-380h-380v800h380v-380z" />
<glyph unicode="&#x42f;" horiz-adv-x="1120" d="M630 320l-175 -320h-445l195 355v10q-75 24 -120 73.5t-45 121.5q0 82 61.5 137t160 79t228.5 24h550v-800h-400v320h-10zM490 760v-400h150v400h-150z" />
<glyph unicode="&#x430;" horiz-adv-x="950" d="M310 360h220v210h-150q-220 0 -220 -120h-40q0 80 68 120t192 40h150q169 0 259.5 -57.5t90.5 -192.5v-360h-330l-10 40h-10q-100 -50 -220 -50q-48 0 -93.5 10.5t-86 31t-65.5 58t-25 85.5t25 85.5t65.5 58t86 31t93.5 10.5zM420 40q62 8 110 40v240h-110v-280z" />
<glyph unicode="&#x431;" horiz-adv-x="960" d="M400 490v-460h160v460h-160zM365 750l475 60l5 -40l-455 -55v-185h150q184 0 277 -60t93 -210q0 -65 -17 -112.5t-46.5 -77.5t-77 -48t-102 -25t-127.5 -7h-120q-62 0 -107.5 5.5t-90 19.5t-74 41t-53 68.5t-34.5 103t-11 142.5q0 103 21 173.5t64.5 112.5t97.5 63 t132 31z" />
<glyph unicode="&#x432;" horiz-adv-x="1000" d="M750 310v-10q93 -8 151.5 -45t58.5 -95q0 -44 -31 -75.5t-87 -49.5t-126 -26.5t-156 -8.5h-480v600h520q140 0 230 -36.5t90 -113.5q0 -50 -48.5 -87t-121.5 -53zM430 40h130v520h-130v-520z" />
<glyph unicode="&#x433;" horiz-adv-x="740" d="M80 0v600h650v-40h-300v-560h-350z" />
<glyph unicode="&#x434;" horiz-adv-x="910" d="M-20 0v40h70q59 103 79.5 221t20.5 339h660v-560h70v-40h-900zM190 560q0 -192 -20 -304.5t-75 -215.5h365v520h-270z" />
<glyph unicode="&#x435;" d="M50 300q0 92 25 153.5t78.5 95.5t123.5 47.5t173 13.5q79 0 134 -5t102.5 -18.5t76.5 -36.5t49.5 -60t29 -88t8.5 -122h-430v-250h160q107 0 163.5 33t56.5 117h40q0 -101 -67 -145.5t-193 -44.5h-180q-84 0 -144 13.5t-108.5 47t-73 96t-24.5 153.5zM420 570v-250h390 q0 56 -7.5 95t-27.5 67.5t-47 45t-74 26.5t-100 13t-134 3z" />
<glyph unicode="&#x436;" horiz-adv-x="1360" d="M120 600l385 -250v250h350v-250l385 250h75l-135 -85v-10l170 -505h-370l-105 315l-20 -15v-300h-350v300l-20 15l-105 -315h-370l170 505v10l-135 85h75z" />
<glyph unicode="&#x437;" horiz-adv-x="880" d="M290 30h150v540h-150q-107 0 -163.5 -33t-56.5 -117h-40q0 101 67 145.5t193 44.5h190q80 0 140 -7t109.5 -23t75 -46t25.5 -74q0 -118 -200 -150v-10q94 -8 152 -46.5t58 -103.5q0 -47 -30.5 -79.5t-88 -49.5t-125 -24t-156.5 -7h-150q-126 0 -193 44.5t-67 145.5h40 q0 -84 56.5 -117t163.5 -33z" />
<glyph unicode="&#x438;" horiz-adv-x="1010" d="M590 0v480l-170 -480h-340v600h340v-480l170 480h340v-600h-340z" />
<glyph unicode="&#x439;" horiz-adv-x="1010" d="M590 0v480l-170 -480h-340v600h340v-480l170 480h340v-600h-340zM505 710q-87 0 -141 35.5t-54 94.5h40q0 -37 45.5 -63.5t109.5 -26.5t109.5 26.5t45.5 63.5h40q0 -59 -54 -94.5t-141 -35.5z" />
<glyph unicode="&#x43a;" horiz-adv-x="980" d="M430 600v-250l385 250h75l-160 -105v-10l240 -485h-395l-145 300v-300h-350v600h350z" />
<glyph unicode="&#x43b;" horiz-adv-x="870" d="M140 600h650v-600h-350v560h-260q0 -285 -39.5 -422.5t-140.5 -137.5v40q73 0 106.5 141t33.5 419z" />
<glyph unicode="&#x43c;" horiz-adv-x="1145" d="M605 320l110 280h350v-600h-350v490l-195 -490h-130l-270 450v-450h-40v600h355z" />
<glyph unicode="&#x43d;" horiz-adv-x="1000" d="M570 0v280h-140v-280h-350v600h350v-280h140v280h350v-600h-350z" />
<glyph unicode="&#x43e;" horiz-adv-x="960" d="M410 570v-540h140v540h-140zM420 610h120q91 0 155.5 -13.5t115 -47.5t75 -95.5t24.5 -153.5q0 -95 -24.5 -157.5t-75.5 -95.5t-114 -45t-156 -12h-120q-93 0 -156 12t-114 45t-75.5 95.5t-24.5 157.5q0 92 24.5 153.5t75 95.5t115 47.5t155.5 13.5z" />
<glyph unicode="&#x43f;" horiz-adv-x="1000" d="M570 0v560h-140v-560h-350v600h840v-600h-350z" />
<glyph unicode="&#x440;" horiz-adv-x="990" d="M570 40v525q-76 -8 -140 -50v-475h140zM650 610q290 0 290 -305q0 -75 -17 -129.5t-45.5 -88t-74 -53.5t-95.5 -27t-118 -7h-160v-200h-350v800h330l10 -40h10q100 50 220 50z" />
<glyph unicode="&#x441;" d="M50 300q0 91 24.5 153.5t73 96t108.5 47t144 13.5h200q126 0 193 -44.5t67 -145.5h-40q0 84 -56.5 117t-163.5 33h-180v-540h180q107 0 163.5 33t56.5 117h40q0 -101 -67 -145.5t-193 -44.5h-200q-84 0 -144 13.5t-108.5 47t-73 96t-24.5 153.5z" />
<glyph unicode="&#x442;" horiz-adv-x="830" d="M10 560v40h810v-40h-230v-560h-350v560h-230z" />
<glyph unicode="&#x443;" horiz-adv-x="830" d="M820 600l-240 -630q-17 -45 -31 -73t-35.5 -49t-41.5 -31.5t-58.5 -17t-75.5 -8t-103 -1.5v40q66 0 102.5 2t72 9.5t55.5 23.5t37.5 40.5t32.5 64.5l15 40h-290l-250 590h370l205 -495l190 495h45z" />
<glyph unicode="&#x444;" horiz-adv-x="1290" d="M920 560h-110v-520h110v520zM480 560h-110v-520h110v520zM470 800h350v-200h90q67 0 117.5 -7t96 -26.5t74 -52.5t45.5 -87t17 -127t-17 -127t-45.5 -87t-74 -52.5t-96 -26.5t-117.5 -7h-90v-200h-350v200h-90q-67 0 -117.5 7t-96 26.5t-74 52.5t-45.5 87t-17 127t17 127 t45.5 87t74 52.5t96 26.5t117.5 7h90v200z" />
<glyph unicode="&#x445;" horiz-adv-x="810" d="M390 0l-155 240l-165 -240h-45l180 280l-205 320h420l155 -240l165 240h45l-180 -280l205 -320h-420z" />
<glyph unicode="&#x446;" horiz-adv-x="1030" d="M1000 0h-920v600h350v-560h150v560h350v-560h70v-40z" />
<glyph unicode="&#x447;" horiz-adv-x="960" d="M530 210h-130q-175 0 -267.5 55.5t-92.5 184.5v150h360v-350h130v350h350v-600h-350v210z" />
<glyph unicode="&#x448;" horiz-adv-x="1370" d="M950 40v560h340v-600h-1210v600h340v-560h95v560h340v-560h95z" />
<glyph unicode="&#x449;" horiz-adv-x="1390" d="M1360 0h-1280v600h340v-560h95v560h340v-560h95v560h340v-560h70v-40z" />
<glyph unicode="&#x44a;" horiz-adv-x="1020" d="M0 560v40h490v-220h130q161 0 270.5 -49t109.5 -141q0 -190 -380 -190h-480v560h-140zM620 340h-130v-300h130v300z" />
<glyph unicode="&#x44b;" horiz-adv-x="1390" d="M430 600v-220h110q161 0 270.5 -49t109.5 -141q0 -190 -380 -190h-460v600h350zM540 340h-110v-300h110v300zM1310 600v-600h-350v600h350z" />
<glyph unicode="&#x44c;" horiz-adv-x="960" d="M430 600v-220h130q161 0 270.5 -49t109.5 -141q0 -190 -380 -190h-480v600h350zM560 340h-130v-300h130v300z" />
<glyph unicode="&#x44d;" d="M840 300q0 -91 -24.5 -153.5t-73 -96t-108.5 -47t-144 -13.5h-200q-126 0 -193 44.5t-67 145.5h40q0 -84 56.5 -117t163.5 -33h180v540h-180q-107 0 -163.5 -33t-56.5 -117h-40q0 101 67 145.5t193 44.5h200q84 0 144 -13.5t108.5 -47t73 -96t24.5 -153.5z" />
<glyph unicode="&#x44e;" horiz-adv-x="1350" d="M850 610h80q91 0 155.5 -13.5t115 -47.5t75 -95.5t24.5 -153.5q0 -95 -24.5 -157.5t-75.5 -95.5t-114 -45t-156 -12h-80q-70 0 -122.5 7t-99.5 26t-77.5 51t-49 83.5t-21.5 122.5h-50v-280h-350v600h350v-280h50q3 71 21.5 122.5t49 83.5t77.5 51t99.5 26t122.5 7z M830 570v-540h120v540h-120z" />
<glyph unicode="&#x44f;" horiz-adv-x="955" d="M405 260h120v300h-120v-300zM525 0v220h-10l-120 -220h-385l135 255v10q-120 48 -120 145q0 190 380 190h470v-600h-350z" />
<glyph unicode="&#x451;" d="M50 300q0 92 25 153.5t78.5 95.5t123.5 47.5t173 13.5q79 0 134 -5t102.5 -18.5t76.5 -36.5t49.5 -60t29 -88t8.5 -122h-430v-250h160q107 0 163.5 33t56.5 117h40q0 -101 -67 -145.5t-193 -44.5h-180q-84 0 -144 13.5t-108.5 47t-73 96t-24.5 153.5zM420 570v-250h390 q0 56 -7.5 95t-27.5 67.5t-47 45t-74 26.5t-100 13t-134 3zM110 710v40h290v-40h-290zM500 710v40h290v-40h-290z" />
<glyph unicode="&#x2013;" horiz-adv-x="560" d="M30 350v40h500v-40h-500z" />
<glyph unicode="&#x2014;" horiz-adv-x="760" d="M30 350v40h700v-40h-700z" />
<glyph unicode="&#x2018;" horiz-adv-x="480" d="M125 625q23 15 85 15h60q130 0 130 -80v-50q0 -80 -130 -80h-60q-130 0 -130 80v50q0 118 37 179t123 61v-40q-57 0 -82 -33t-33 -102z" />
<glyph unicode="&#x2019;" horiz-adv-x="480" d="M355 605q-23 -15 -85 -15h-60q-130 0 -130 80v50q0 80 130 80h60q130 0 130 -80v-50q0 -118 -37 -179t-123 -61v40q57 0 82 33t33 102z" />
<glyph unicode="&#x201c;" horiz-adv-x="720" d="M425 625q23 15 85 15q130 0 130 -80v-50q0 -80 -130 -80t-130 80v50q0 118 37 179t123 61v-40q-57 0 -82 -33t-33 -102zM125 625q23 15 85 15q130 0 130 -80v-50q0 -80 -130 -80t-130 80v50q0 118 37 179t123 61v-40q-57 0 -82 -33t-33 -102z" />
<glyph unicode="&#x201d;" horiz-adv-x="720" d="M295 605q-23 -15 -85 -15q-130 0 -130 80v50q0 80 130 80t130 -80v-50q0 -118 -37 -179t-123 -61v40q57 0 82 33t33 102zM595 605q-23 -15 -85 -15q-130 0 -130 80v50q0 80 130 80t130 -80v-50q0 -118 -37 -179t-123 -61v40q57 0 82 33t33 102z" />
<glyph unicode="&#x2022;" horiz-adv-x="600" d="M460 425v-50q0 -60 -35 -95t-95 -35h-60q-60 0 -95 35t-35 95v50q0 60 35 95t95 35h60q60 0 95 -35t35 -95z" />
<glyph unicode="&#x2026;" horiz-adv-x="1160" d="M210 210q130 0 130 -80v-50q0 -80 -130 -80t-130 80v50q0 80 130 80zM580 210q130 0 130 -80v-50q0 -80 -130 -80t-130 80v50q0 80 130 80zM950 210q130 0 130 -80v-50q0 -80 -130 -80t-130 80v50q0 80 130 80z" />
<glyph unicode="&#x2039;" horiz-adv-x="470" d="M30 320l390 225l20 -35l-365 -210l365 -210l-20 -35l-390 225v40z" />
<glyph unicode="&#x203a;" horiz-adv-x="470" d="M50 545l390 -225v-40l-390 -225l-20 35l365 210l-365 210z" />
<glyph unicode="&#x20ac;" horiz-adv-x="1120" d="M520 810h180q69 0 121 -5t103 -21t83.5 -43t52.5 -72.5t20 -108.5h-40q0 54 -19 93t-48.5 61t-76 35t-91.5 17t-105 4h-180v-270h350v-40h-350v-100h330v-40h-330v-290h180q60 0 105 4t91.5 17t76 35t48.5 61t19 93h40q0 -63 -20 -108.5t-52.5 -72.5t-83.5 -43t-103 -21 t-121 -5h-180q-71 0 -127.5 8t-111.5 30.5t-94 58.5t-66 95t-36 138h-75v40h70v100h-50v40h55q10 74 38.5 130t67.5 89.5t93.5 54.5t110.5 28.5t125 7.5z" />
<glyph unicode="&#x2116;" horiz-adv-x="1450" d="M80 800h415l395 -650v650h40v-800h-415l-395 650v-650h-40v800zM1210 480q-102 0 -161 35t-59 125t59 125t161 35t161 -35t59 -125t-59 -125t-161 -35zM1010 400v40h400v-40h-400zM1190 520h40v240h-40v-240z" />
<glyph unicode="&#x25fc;" horiz-adv-x="600" d="M0 600h600v-600h-600v600z" />
</font>
</defs>
</svg>
