<?xml version="1.0" standalone="no"?>
<!DOCTYPE svg PUBLIC "-//W3C//DTD SVG 1.1//EN" "http://www.w3.org/Graphics/SVG/1.1/DTD/svg11.dtd" >
<svg xmlns="http://www.w3.org/2000/svg" xmlns:xlink="http://www.w3.org/1999/xlink" version="1.1">
<metadata></metadata>
<defs>
<font id="aldoregular" horiz-adv-x="568" >
<font-face units-per-em="1000" ascent="800" descent="-200" />
<missing-glyph horiz-adv-x="300" />
<glyph unicode=" "  horiz-adv-x="300" />
<glyph unicode="&#x09;" horiz-adv-x="300" />
<glyph unicode="&#xa0;" horiz-adv-x="300" />
<glyph unicode="!" horiz-adv-x="273" d="M30 165v535h213v-535h-213zM30 1v109h213v-109h-213z" />
<glyph unicode="&#x22;" horiz-adv-x="524" d="M242 553v150h-212v-150h112v-100zM494 553v150h-212v-150h112v-100z" />
<glyph unicode="#" horiz-adv-x="757" d="M481 699l-22 -105h-52l23 105h-213l-22 -105h-165v-214h119l-11 -55h-108v-214h62l-23 -111h212l23 111h52l-23 -111h212l23 111h159v214h-113l12 55h101v214h-56l23 105h-213zM350 325l12 55h51l-11 -55h-52z" />
<glyph unicode="$" horiz-adv-x="577" d="M354 756h58v-56h102v-253q-66 72 -160 89v220zM217 -53h-18v55h-169v286q62 -98 187 -122v-219zM272 -53v270q-102 0 -172 71t-70 171q0 81 46.5 144t122.5 86v67h101v-270q102 0 174.5 -71.5t72.5 -170.5q0 -71 -36.5 -128.5t-97.5 -87.5v-81h-141z" />
<glyph unicode="%" horiz-adv-x="839" d="M567 699l-505 -697h214l505 697h-214zM30 545v-13q0 -60 39.5 -103.5t97.5 -49.5v319q-58 -7 -97.5 -50.5t-39.5 -102.5zM334 545q0 59 -39 102.5t-95 50.5v-319q56 6 95 50t39 103v13zM505 166v-13q0 -60 39.5 -103.5t97.5 -49.5v319q-58 -7 -97.5 -50.5t-39.5 -102.5z M809 166q0 59 -39 102.5t-95 50.5v-319q56 6 95 50t39 103v13z" />
<glyph unicode="&#x26;" horiz-adv-x="655" d="M266 2v697h-60q-74 0 -125 -50.5t-51 -124.5q0 -52 29 -95.5t76 -64.5q-47 -24 -76 -70.5t-29 -99.5q0 -81 56.5 -136.5t135.5 -55.5h44zM380 699h-60v-433h221q-28 64 -90 98q47 21 76 64.5t29 95.5q0 74 -51 124.5t-125 50.5zM625 210h-305v-208h54q94 0 164 58.5 t87 149.5z" />
<glyph unicode="'" horiz-adv-x="272" d="M242 553v150h-212v-150h112v-100z" />
<glyph unicode="(" horiz-adv-x="344" d="M314 -198v211h-55v473h55v212q-9 1 -27 1q-107 0 -182 -75.5t-75 -181.5v-385q0 -107 75 -182t182 -75q7 0 27 2z" />
<glyph unicode=")" horiz-adv-x="344" d="M30 -198v211h55v473h-55v212q9 1 27 1q107 0 182 -75.5t75 -181.5v-385q0 -107 -75 -182t-182 -75q-7 0 -27 2z" />
<glyph unicode="*" horiz-adv-x="409" d="M30 591v110h156v-184h-82zM223 627v-110h156v184h-82zM379 408v-110h-156v184h82zM186 372v110h-156v-184h82z" />
<glyph unicode="+" horiz-adv-x="603" d="M409 80v164h164v214h-164v165h-214v-165h-165v-214h165v-164h214z" />
<glyph unicode="," horiz-adv-x="272" d="M242 0v150h-212v-150h112v-100z" />
<glyph unicode="-" horiz-adv-x="307" d="M277 458h-247v-214h247v214z" />
<glyph unicode="." horiz-adv-x="272" d="M242 0v150h-212v-150h212z" />
<glyph unicode="/" horiz-adv-x="527" d="M284 699l-254 -699h212l255 699h-213z" />
<glyph unicode="0" d="M30 450v-197q0 -99 65.5 -169.5t163.5 -80.5v696q-97 -11 -163 -82t-66 -167zM538 450q0 95 -65 166.5t-159 82.5v-696q95 11 159.5 81.5t64.5 168.5v197z" />
<glyph unicode="1" horiz-adv-x="274" d="M30 699v-697h214v697h-214z" />
<glyph unicode="2" horiz-adv-x="577" d="M305 700h-28v-214q-102 0 -174.5 -71.5t-72.5 -170.5v-242h275v215q102 0 172 71t70 171t-70 170.5t-172 70.5zM547 288q-62 -98 -187 -122v-164h187v286zM63 700v-253q63 70 159 89v164h-159z" />
<glyph unicode="3" horiz-adv-x="560" d="M354 699h-61v-181h1v-54h-1v-198h1v-56h-1v-208h45q79 0 135.5 55.5t56.5 136.5q0 53 -29 99.5t-76 70.5q47 21 76 64.5t29 95.5q0 74 -51 124.5t-125 50.5zM30 210v-208h208v208h-208zM30 464v-198h208v198h-208zM30 699v-181h208v181h-208z" />
<glyph unicode="4" horiz-adv-x="599" d="M514 432v269h-213v-699h213v264h55v166h-55zM30 701v-435h216v166h-1v269h-215z" />
<glyph unicode="5" horiz-adv-x="577" d="M217 166v-164h-187v286q62 -98 187 -122zM272 2v215q-102 0 -172 71t-70 171v241h270v-214q102 0 174.5 -71.5t72.5 -170.5q0 -102 -72 -172t-175 -70h-28zM352 536v164h162v-253q-64 72 -162 89z" />
<glyph unicode="6" d="M259 486h279q-16 91 -87 152t-164 61q-107 0 -182 -75.5t-75 -181.5v-185q0 -79 43 -143t114 -94q33 -14 72 -19v485zM433 431h-119v-430q38 5 71 18q70 28 111.5 89t41.5 140v74q0 45 -31 77t-74 32z" />
<glyph unicode="7" horiz-adv-x="562" d="M267 1l175 462h-237l-175 -462h237zM79 520l384 -2l69 182h-502z" />
<glyph unicode="8" horiz-adv-x="586" d="M222 2h44v697h-60q-74 0 -125 -50.5t-51 -124.5q0 -52 29 -95.5t76 -64.5q-47 -24 -76 -70.5t-29 -99.5q0 -81 56.5 -136.5t135.5 -55.5zM380 699h-60v-697h44q79 0 135.5 55.5t56.5 136.5q0 53 -29 99.5t-76 70.5q47 21 76 64.5t29 95.5q0 74 -51 124.5t-125 50.5z" />
<glyph unicode="9" d="M309 214h-279q16 -91 87 -152t164 -61q107 0 182 75.5t75 181.5v185q0 79 -43 143t-114 94q-35 14 -72 18v-484zM94 277q21 -8 41 -8h119v430q-38 -5 -72 -18q-69 -29 -110.5 -90t-41.5 -139v-74q0 -33 18 -60.5t46 -40.5z" />
<glyph unicode=":" horiz-adv-x="272" d="M242 0v150h-212v-150h212zM242 376v150h-212v-150h212z" />
<glyph unicode=";" horiz-adv-x="272" d="M242 0v150h-212v-150h112v-100zM242 376v150h-212v-150h212z" />
<glyph unicode="&#x3c;" horiz-adv-x="595" d="M30 496v-240l535 147v235zM565 343l-535 -141v-6l535 -148v295z" />
<glyph unicode="=" horiz-adv-x="645" d="M615 317h-585v-214h585v214zM615 586h-585v-214h585v214z" />
<glyph unicode="&#x3e;" horiz-adv-x="595" d="M565 496v-239l-535 146v235zM30 48v295l535 -140v-7z" />
<glyph unicode="?" horiz-adv-x="578" d="M223 700v-164q-96 -19 -159 -89v253h159zM278 700h28q102 0 172 -70.5t70 -170.5t-70 -171t-172 -71h-63v-53h-212v80q0 99 72.5 170.5t174.5 71.5v214zM30 1v109h213v-109h-213z" />
<glyph unicode="@" horiz-adv-x="928" d="M898 401q0 123 -88.5 211t-211.5 88h-273q-123 0 -209 -86t-86 -209v-273q0 -123 86.5 -211.5t208.5 -88.5h273q122 0 211 87t89 207v3h-136q-2 -66 -49 -113t-115 -47h-273q-65 0 -111.5 48.5t-46.5 114.5v273q0 66 46 112.5t112 46.5h273q69 0 116.5 -46.5t47.5 -112.5 q0 -63 -44.5 -110t-109.5 -51v64q0 76 -54 130.5t-128 54.5q-9 0 -25 -2l105 -384h92q122 0 211 87t89 207zM466 107l-101 375q-55 -19 -89.5 -67t-34.5 -107v-16q0 -76 54.5 -130.5t130.5 -54.5h40z" />
<glyph unicode="A" horiz-adv-x="650" d="M620 1l-191 699h-213l-15 -58l194 -641h225zM325 1l-151 543l-144 -543h295z" />
<glyph unicode="B" horiz-adv-x="560" d="M30 699v-697h214v697h-214zM354 699h-60v-697h44q79 0 135.5 55.5t56.5 136.5q0 53 -29 99.5t-76 70.5q47 21 76 64.5t29 95.5q0 74 -51 124.5t-125 50.5z" />
<glyph unicode="C" horiz-adv-x="573" d="M30 257q0 -99 66 -172t163 -84v696q-97 -11 -163 -83.5t-66 -171.5v-185zM543 442q0 99 -66 172t-163 83v-266h229v11zM543 268h-229v-267q97 11 163 84t66 172v11z" />
<glyph unicode="D" d="M30 700v-699h229v699h-229zM538 443q0 98 -65 171t-159 84v-696q94 11 159 84t65 172v185z" />
<glyph unicode="E" horiz-adv-x="522" d="M30 700v-698h213v698h-213zM492 700h-194v-215h194v215zM492 210h-194v-208h194v208zM492 431h-194v-165h194v165z" />
<glyph unicode="F" horiz-adv-x="513" d="M30 1h207v699h-207v-699zM483 700h-191v-213h191v213zM483 432h-191v-163h191v163z" />
<glyph unicode="G" d="M30 257q0 -99 66 -172t163 -84v696q-97 -11 -163 -83.5t-66 -171.5v-185zM538 431h-224v-430q95 10 159.5 80.5t64.5 166.5v183zM538 486q-16 84 -78 143t-146 68v-211h224z" />
<glyph unicode="H" horiz-adv-x="544" d="M245 2v699h-215v-699h215zM514 2v699h-214v-699h214z" />
<glyph unicode="I" horiz-adv-x="274" d="M30 699v-697h214v697h-214z" />
<glyph unicode="J" d="M260 268v-267q-96 8 -163 82t-67 174v11h230zM315 700v-698q95 13 159 85t64 170v443h-223z" />
<glyph unicode="K" horiz-adv-x="572" d="M245 389l-127 -51l93 -336h-181v698h215v-311zM187 306l80 -304h275l-94 358l94 340h-242v-348z" />
<glyph unicode="L" horiz-adv-x="513" d="M30 700v-698h213v698h-213zM483 177h-185v-175h185v175z" />
<glyph unicode="M" horiz-adv-x="958" d="M469 700h-232l-207 -700h247zM338 1l191 699h213l17 -66l-196 -633h-225zM928 1h-295l150 544z" />
<glyph unicode="N" horiz-adv-x="543" d="M289 699h-209l186 -697h205zM211 2l-181 661v-661h181zM513 699h-170l170 -639v639z" />
<glyph unicode="O" d="M30 450v-197q0 -99 65.5 -169.5t163.5 -80.5v696q-97 -11 -163 -82t-66 -167zM538 450q0 95 -65 166.5t-159 82.5v-696q95 11 159.5 81.5t64.5 168.5v197z" />
<glyph unicode="P" d="M123 252q53 -47 120 -57v504h-213v-697h213v141q-87 7 -158 70zM538 448q0 99 -70.5 172.5t-169.5 78.5v-507q99 5 169.5 79t70.5 177z" />
<glyph unicode="Q" d="M538 444q0 98 -66 170.5t-163 83.5v-795h185l-44 164q41 32 64.5 82.5t23.5 108.5v186zM30 444v-186q0 -100 63.5 -173t160.5 -83v696q-97 -10 -160.5 -82t-63.5 -172z" />
<glyph unicode="R" horiz-adv-x="572" d="M183 307l84 -305h275l-72 264q66 83 66 181q0 100 -68 173t-168 79v-339zM117 338l128 57v305h-215v-698h181z" />
<glyph unicode="S" horiz-adv-x="577" d="M272 2v215q-102 0 -172 71t-70 171t70 170.5t172 70.5h28v-214q102 0 174.5 -71.5t72.5 -170.5q0 -102 -72 -172t-175 -70h-28zM354 536v164h160v-253q-66 72 -160 89zM217 2h-187v286q62 -98 187 -122v-164z" />
<glyph unicode="T" horiz-adv-x="519" d="M489 700h-459v-213h459v213zM150 1h213v431h-213v-431z" />
<glyph unicode="U" horiz-adv-x="573" d="M543 701h-229v-700q97 11 163 84t66 172v444zM259 701h-229v-444q0 -99 66 -172t163 -84v700z" />
<glyph unicode="V" horiz-adv-x="650" d="M30 700l191 -699h213l9 34l-173 665h-240zM620 700h-295l147 -554z" />
<glyph unicode="W" horiz-adv-x="958" d="M469 0h-232l-207 700h247zM338 699l191 -699h213l13 48l-192 651h-225zM928 699h-295l151 -542z" />
<glyph unicode="X" d="M259 700h-229v-142q0 -69 49 -147q-49 -71 -49 -148v-262h229v699zM314 700v-699h224v262q0 84 -44 148q44 70 44 147v142h-224z" />
<glyph unicode="Y" d="M259 700h-229v-142q0 -73 41 -136.5t106 -92.5v-328h82v699zM314 700v-699h76v328q66 28 107 91.5t41 137.5v142h-224z" />
<glyph unicode="Z" horiz-adv-x="562" d="M463 520l69 180h-502l49 -180h384zM483 187l-382 1l-71 -187h502zM206 465l-84 -222h235l85 222h-236z" />
<glyph unicode="[" horiz-adv-x="344" d="M30 699v-899h284v213h-55v473h55v213h-284z" />
<glyph unicode="\" horiz-adv-x="527" d="M243 699l254 -699h-212l-255 699h213z" />
<glyph unicode="]" horiz-adv-x="344" d="M314 699v-899h-284v213h55v473h-55v213h284z" />
<glyph unicode="^" horiz-adv-x="558" d="M30 335l97 365h238l-98 -365h-237zM324 335l95 365h8l101 -365h-204z" />
<glyph unicode="_" horiz-adv-x="561" d="M531 15h-501v-214h501v214z" />
<glyph unicode="`" horiz-adv-x="272" d="M30 650v51h212v-151h-112z" />
<glyph unicode="a" d="M538 278q0 106 -74.5 181.5t-176.5 75.5q-17 0 -35 -3l144 -532h142v278zM341 0l-139 520q-76 -27 -124 -93t-48 -149v-21q0 -107 75 -182t182 -75h54z" />
<glyph unicode="b" d="M30 699v-699h213v531q-66 -10 -120 -56l-38 44q78 58 158 65v115h-213zM538 278q0 103 -70.5 177.5t-169.5 79.5v-535q99 5 169.5 79.5t70.5 177.5v21z" />
<glyph unicode="c" d="M30 257q0 -99 66 -172t163 -84v532q-97 -11 -163 -83.5t-66 -171.5v-21zM538 322q-16 84 -78 143t-146 68v-211h224zM538 213h-224v-212q84 10 146 69t78 143z" />
<glyph unicode="d" d="M538 0h-213v531q66 -10 120 -56l38 44q-78 58 -158 65v115h213v-699zM30 278q0 103 70.5 177.5t169.5 79.5v-535q-99 5 -169.5 79.5t-70.5 177.5v21z" />
<glyph unicode="e" d="M538 213h-279v320q-97 -11 -163 -83.5t-66 -171.5v-278h257q93 0 163.5 61t87.5 152zM538 278q0 100 -64 172.5t-160 82.5v-265h224v10z" />
<glyph unicode="f" d="M30 0h229v699q-97 -11 -163 -83.5t-66 -171.5v-444zM535 488q-14 85 -75 143.5t-146 67.5v-211h221zM510 379h-196v-207q74 16 128 73t68 134z" />
<glyph unicode="g" d="M117 -1l-66 -64q31 -64 93 -103t137 -39q107 0 182 72.5t75 178.5v485h-213v-526q62 10 120 51l38 -38q-29 -29 -82 -50t-114 -21h-17q-44 0 -85.5 15t-67.5 39zM30 251q0 -100 71.5 -173t174.5 -78v529q-106 -2 -176 -79t-70 -199z" />
<glyph unicode="h" horiz-adv-x="540" d="M30 0h213v699h-213v-699zM510 0v535h-212v-535h212z" />
<glyph unicode="i" horiz-adv-x="273" d="M30 535v-535h213v535h-213zM30 699v-109h213v109h-213z" />
<glyph unicode="j" d="M259 -55v-206q-87 8 -150.5 65t-78.5 141h229zM314 699v-109h224v109h-224zM314 -260v796h224v-547q0 -97 -64 -167t-160 -82z" />
<glyph unicode="k" d="M243 392v307h-213v-699h180l-93 339zM298 414l97 41l20 -52l-231 -96l81 -307h273l-93 355l49 180h-196v-121z" />
<glyph unicode="l" horiz-adv-x="273" d="M30 699v-699h213v699h-213z" />
<glyph unicode="m" horiz-adv-x="865" d="M30 0h243l147 535h-232zM480 535h213l12 -47l-141 -488h-230zM629 0l106 377l100 -377h-206z" />
<glyph unicode="n" horiz-adv-x="573" d="M543 0h-229v533q97 -10 163 -83t66 -172v-278zM259 0h-229v278q0 99 66 171.5t163 83.5v-533z" />
<glyph unicode="o" d="M30 278v-21q0 -99 66 -172t163 -84v532q-97 -11 -163 -83.5t-66 -171.5zM538 278q0 98 -65 171t-159 84v-532q94 11 159 84t65 172v21z" />
<glyph unicode="p" d="M30 -164v699h213v-532q-66 11 -120 57l-38 -44q78 -58 158 -65v-115h-213zM538 257q0 -103 -70.5 -177.5t-169.5 -79.5v535q99 -5 169.5 -79.5t70.5 -177.5v-21z" />
<glyph unicode="q" d="M538 535h-213v-532q67 12 120 57l38 -44q-78 -58 -158 -65v-115h213v699zM30 257q0 -103 70.5 -177.5t169.5 -79.5v535q-99 -5 -169.5 -79.5t-70.5 -177.5v-21z" />
<glyph unicode="r" horiz-adv-x="562" d="M308 322v211q86 -9 149.5 -68.5t74.5 -142.5h-224zM254 0h-224v278q0 98 64.5 171t159.5 84v-533z" />
<glyph unicode="s" horiz-adv-x="562" d="M30 322h502q-17 91 -87.5 152t-163.5 61q-94 0 -166.5 -61.5t-84.5 -151.5zM308 268h224v-11q0 -106 -74 -181.5t-177 -75.5q-94 0 -166.5 61.5t-84.5 151.5h278v55z" />
<glyph unicode="t" horiz-adv-x="562" d="M253 214v485h-223v-442q0 -106 74.5 -181.5t176.5 -75.5q94 0 166.5 61.5t84.5 151.5h-278v1h-1zM532 535h-224v-213h224v213z" />
<glyph unicode="u" d="M309 535v-534q97 11 163 84t66 172v278h-229zM254 535h-224v-278q0 -100 64 -172.5t160 -83.5v534z" />
<glyph unicode="v" horiz-adv-x="650" d="M172 2h237l-144 535h-235zM620 537h-295l139 -535h8z" />
<glyph unicode="w" horiz-adv-x="865" d="M30 536h243l147 -535h-232zM480 1h213l13 50l-142 485h-230zM629 536l106 -376l100 376h-206z" />
<glyph unicode="x" d="M259 0h-229v142q0 69 49 147q-49 80 -49 148v98h229v-535zM538 0h-224v535h224v-98q0 -76 -44 -148q44 -70 44 -147v-142z" />
<glyph unicode="y" d="M116 0l-65 -64q31 -65 93 -104t137 -39q107 0 182 72.5t75 178.5v485h-213v-526q62 10 120 51l38 -38q-29 -29 -82 -50t-114 -21h-17q-43 0 -85.5 15.5t-68.5 39.5zM30 251q0 -100 71.5 -173t174.5 -78v529h-246v-278z" />
<glyph unicode="z" horiz-adv-x="563" d="M484 181h-153l43 112h-217l-110 -292h486zM80 349l315 -1l72 187h-437z" />
<glyph unicode="{" horiz-adv-x="448" d="M135 89q0 -17 -1 -32q0 -107 75 -182t182 -75q7 0 27 2v211h-54l-2 35v41q0 53 -29 99.5t-76 70.5q47 21 76 64.5t29 95.5q0 65 1 67h55v212q-9 1 -27 1q-107 0 -182 -75.5t-75 -181.5q1 -10 1 -23q0 -52 -29 -95.5t-76 -64.5q47 -24 76 -70.5t29 -99.5z" />
<glyph unicode="|" horiz-adv-x="274" d="M30 699v-899h214v899h-214z" />
<glyph unicode="}" horiz-adv-x="448" d="M313 89q0 -17 1 -32q0 -107 -75 -182t-182 -75q-7 0 -27 2v211h54l2 35v41q0 53 29 99.5t76 70.5q-47 21 -76 64.5t-29 95.5q0 65 -1 67h-55v212q9 1 27 1q107 0 182 -75.5t75 -181.5q-1 -10 -1 -23q0 -52 29 -95.5t76 -64.5q-47 -24 -76 -70.5t-29 -99.5z" />
<glyph unicode="~" horiz-adv-x="603" d="M243 231h73q106 0 181.5 75.5t75.5 181.5q0 18 -1 27h-212v-55h-73q-107 0 -182 -75t-75 -182q0 -7 2 -27h211v55z" />
<glyph unicode="&#xa1;" horiz-adv-x="273" d="M30 335v-535h213v535h-213zM30 499v-109h213v109h-213z" />
<glyph unicode="&#xa2;" d="M538 213h-154l19 53h-373v-9q0 -116 87 -193l-52 -145h212l30 81q87 7 151 67t80 146zM319 618l-30 -83h-2q-95 0 -166.5 -61t-87.5 -153h390l1 1h114q-13 73 -66 131l60 165h-213z" />
<glyph unicode="&#xa3;" horiz-adv-x="619" d="M589 198v-195h-559v195h559zM536 267h-477v197h477v-197zM89 519v5q0 74 51 124.5t125 50.5h324v-180h-500z" />
<glyph unicode="&#xa5;" d="M177 116v-115h82v699h-229v-142q0 -73 40.5 -136.5t104.5 -91.5h-145v-214h147zM538 330h-146q65 28 105.5 91.5t40.5 136.5v142h-224v-699h76v115h148v214z" />
<glyph unicode="&#xa7;" horiz-adv-x="562" d="M30 487h502q-17 91 -87.5 152t-163.5 61q-94 0 -166.5 -61.5t-84.5 -151.5zM281 165h-251q12 90 84.5 151.5t166.5 61.5h27v55h224v-11q0 -106 -74 -181.5t-177 -75.5zM308 111h224v-11q0 -106 -74 -181.5t-177 -75.5q-94 0 -166.5 61.5t-84.5 151.5h278v55z" />
<glyph unicode="&#xa8;" horiz-adv-x="539" d="M242 551v150h-212v-150h212zM509 551v150h-212v-150h212z" />
<glyph unicode="&#xa9;" horiz-adv-x="760" d="M268 700q-99 0 -168.5 -69.5t-69.5 -168.5v-220q0 -99 69.5 -170.5t168.5 -71.5h220q99 0 170.5 71.5t71.5 170.5v220q0 99 -71.5 168.5t-170.5 69.5h-220zM268 590h220q55 0 93.5 -37.5t38.5 -90.5v-220q0 -53 -38.5 -92.5t-93.5 -39.5h-220q-53 0 -90.5 39.5 t-37.5 92.5v220q0 53 37.5 90.5t90.5 37.5zM247 308q0 -50 33 -86.5t82 -41.5v348q-49 -5 -82 -42t-33 -86v-92zM504 400q0 50 -33 87t-82 41v-133h115v5zM504 313h-115v-134q49 5 82 42t33 87v5z" />
<glyph unicode="&#xaa;" horiz-adv-x="365" d="M335 546q0 64 -44.5 109t-106.5 45q-7 0 -21 -2l87 -319h85v167zM217 379l-85 312q-45 -16 -73.5 -55.5t-28.5 -89.5v-13q0 -64 45 -109t109 -45h33z" />
<glyph unicode="&#xab;" horiz-adv-x="683" d="M314 0v211h-55v91h55v212q-9 1 -27 1q-107 0 -182 -75.5t-75 -184.5q0 -107 75 -182t182 -75q7 0 27 2zM653 0v211h-55v91h55v212q-9 1 -27 1q-107 0 -182 -75.5t-75 -184.5q0 -107 75.5 -182t181.5 -75q7 0 27 2z" />
<glyph unicode="&#xae;" horiz-adv-x="760" d="M268 700q-99 0 -168.5 -69.5t-69.5 -168.5v-220q0 -99 69.5 -170.5t168.5 -71.5h220q99 0 170.5 71.5t71.5 170.5v220q0 99 -71.5 168.5t-170.5 69.5h-220zM268 590h220q55 0 93.5 -37.5t38.5 -90.5v-220q0 -53 -38.5 -92.5t-93.5 -39.5h-220q-53 0 -90.5 39.5 t-37.5 92.5v220q0 53 37.5 90.5t90.5 37.5zM338 336l42 -153h138l-36 132q33 41 33 91t-34 86.5t-84 39.5v-169zM305 351l64 29v153h-107v-350h90z" />
<glyph unicode="&#xaf;" horiz-adv-x="559" d="M529 708v150h-499v-150h499z" />
<glyph unicode="&#xb0;" horiz-adv-x="381" d="M223 562v-33h-65v33h65zM197 699h-13q-64 0 -109 -45t-45 -109q0 -61 45.5 -105.5t108.5 -44.5h13q63 0 108.5 44.5t45.5 105.5q0 64 -45 109t-109 45z" />
<glyph unicode="&#xb4;" horiz-adv-x="272" d="M242 651v50h-212v-150h112z" />
<glyph unicode="&#xb6;" horiz-adv-x="624" d="M538 645h56v56h-313q-102 0 -176.5 -75.5t-74.5 -181.5v-21q0 -106 74.5 -181.5t176.5 -75.5q14 0 44 4v-370h54v845h104v-845h55v845z" />
<glyph unicode="&#xb7;" horiz-adv-x="272" d="M242 280v150h-212v-150h212z" />
<glyph unicode="&#xb8;" horiz-adv-x="310" d="M130 -212h150v212h-150v-112h-100z" />
<glyph unicode="&#xba;" horiz-adv-x="381" d="M223 562v-33h-65v33h65zM197 699h-13q-64 0 -109 -45t-45 -109q0 -61 45.5 -105.5t108.5 -44.5h13q63 0 108.5 44.5t45.5 105.5q0 64 -45 109t-109 45z" />
<glyph unicode="&#xbb;" horiz-adv-x="683" d="M369 0v211h55v91h-55v212q9 1 27 1q107 0 182 -75.5t75 -184.5q0 -107 -75.5 -182t-181.5 -75q-7 0 -27 2zM30 0v211h55v91h-55v212q9 1 27 1q107 0 182 -75.5t75 -184.5q0 -107 -75 -182t-182 -75q-7 0 -27 2z" />
<glyph unicode="&#xbf;" horiz-adv-x="578" d="M353 -199v164q97 17 161 89v-253h-161zM300 15v-214h-28q-102 0 -172 70.5t-70 170.5t70 171t172 71h63v53h212v-80q0 -99 -72.5 -170.5t-174.5 -71.5zM548 500v-109h-213v109h213z" />
<glyph unicode="&#xc0;" horiz-adv-x="650" d="M221 856v51h212v-151h-112zM620 1l-191 699h-213l-15 -58l194 -641h225zM325 1l-151 543l-144 -543h295z" />
<glyph unicode="&#xc1;" horiz-adv-x="650" d="M450 856v50h-212v-150h112zM620 1l-191 699h-213l-15 -58l194 -641h225zM325 1l-151 543l-144 -543h295z" />
<glyph unicode="&#xc2;" horiz-adv-x="650" d="M368 966h-79l-187 -186q0 -6 2 -24h185v48h80v-48h186q1 8 1 24zM620 1l-191 699h-213l-15 -58l194 -641h225zM325 1l-151 543l-144 -543h295z" />
<glyph unicode="&#xc3;" horiz-adv-x="650" d="M204 756l-100 -100v250h324l100 100v-250h-324zM620 1l-191 699h-213l-15 -58l194 -641h225zM325 1l-151 543l-144 -543h295z" />
<glyph unicode="&#xc4;" horiz-adv-x="650" d="M301 756v150h-212v-150h212zM568 756v150h-212v-150h212zM620 1l-191 699h-213l-15 -58l194 -641h225zM325 1l-151 543l-144 -543h295z" />
<glyph unicode="&#xc5;" horiz-adv-x="650" d="M368 879v-57h-77v57h77zM333 945h-9q-40 0 -68 -28t-28 -68q0 -38 28 -66t68 -28h9q40 0 68 28t28 66q0 40 -28 68t-68 28zM620 1l-191 699h-213l-15 -58l194 -641h225zM325 1l-151 543l-144 -543h295z" />
<glyph unicode="&#xc6;" horiz-adv-x="923" d="M893 210h-248v56h248v165h-248v54h248v215h-677l-14 -52l193 -646h498v208zM325 1l-153 536l-142 -536h295z" />
<glyph unicode="&#xc7;" horiz-adv-x="573" d="M258 -212h150v242q61 34 98 94.5t37 132.5v11h-229v-55h-55v484q-97 -11 -163 -83.5t-66 -171.5v-185q0 -99 66 -171.5t163 -83.5v-114h-101zM543 442q0 99 -66 172t-163 83v-266h229v11z" />
<glyph unicode="&#xc8;" horiz-adv-x="522" d="M168 856v51h212v-151h-112zM30 700v-698h213v698h-213zM492 700h-194v-215h194v215zM492 210h-194v-208h194v208zM492 431h-194v-165h194v165z" />
<glyph unicode="&#xc9;" horiz-adv-x="522" d="M397 856v50h-212v-150h112zM30 700v-698h213v698h-213zM492 700h-194v-215h194v215zM492 210h-194v-208h194v208zM492 431h-194v-165h194v165z" />
<glyph unicode="&#xca;" horiz-adv-x="522" d="M298 966h-79l-187 -186q0 -6 2 -24h185v48h80v-48h186q1 8 1 24zM30 700v-698h213v698h-213zM492 700h-194v-215h194v215zM492 210h-194v-208h194v208zM492 431h-194v-165h194v165z" />
<glyph unicode="&#xcb;" horiz-adv-x="539" d="M242 755v150h-212v-150h212zM509 755v150h-212v-150h212zM30 700v-698h213v698h-213zM492 700h-194v-215h194v215zM492 210h-194v-208h194v208zM492 431h-194v-165h194v165z" />
<glyph unicode="&#xcc;" horiz-adv-x="274" d="M31 856v51h212v-151h-112zM30 699v-697h214v697h-214z" />
<glyph unicode="&#xcd;" horiz-adv-x="289" d="M259 856v50h-212v-150h112zM30 699v-697h214v697h-214z" />
<glyph unicode="&#xce;" horiz-adv-x="514" d="M296 965h-79l-187 -186q0 -6 2 -24h185v48h80v-48h186q1 8 1 24zM150 699v-697h214v697h-214z" />
<glyph unicode="&#xcf;" horiz-adv-x="539" d="M242 755v150h-212v-150h212zM509 755v150h-212v-150h212zM162 699v-697h214v697h-214z" />
<glyph unicode="&#xd1;" horiz-adv-x="543" d="M159 853l-100 -100v250h324l100 100v-250h-324zM289 699h-209l186 -697h205zM211 2l-181 661v-661h181zM513 699h-170l170 -639v639z" />
<glyph unicode="&#xd2;" d="M178 855v51h212v-151h-112zM30 450v-197q0 -99 65.5 -169.5t163.5 -80.5v696q-97 -11 -163 -82t-66 -167zM538 450q0 95 -65 166.5t-159 82.5v-696q95 11 159.5 81.5t64.5 168.5v197z" />
<glyph unicode="&#xd3;" d="M407 856v50h-212v-150h112zM30 450v-197q0 -99 65.5 -169.5t163.5 -80.5v696q-97 -11 -163 -82t-66 -167zM538 450q0 95 -65 166.5t-159 82.5v-696q95 11 159.5 81.5t64.5 168.5v197z" />
<glyph unicode="&#xd4;" d="M323 965h-79l-187 -186q0 -6 2 -24h185v48h80v-48h186q1 8 1 24zM30 450v-197q0 -99 65.5 -169.5t163.5 -80.5v696q-97 -11 -163 -82t-66 -167zM538 450q0 95 -65 166.5t-159 82.5v-696q95 11 159.5 81.5t64.5 168.5v197z" />
<glyph unicode="&#xd5;" d="M172 755l-100 -100v250h324l100 100v-250h-324zM30 450v-197q0 -99 65.5 -169.5t163.5 -80.5v696q-97 -11 -163 -82t-66 -167zM538 450q0 95 -65 166.5t-159 82.5v-696q95 11 159.5 81.5t64.5 168.5v197z" />
<glyph unicode="&#xd6;" d="M256 755v150h-212v-150h212zM523 755v150h-212v-150h212zM30 450v-197q0 -99 65.5 -169.5t163.5 -80.5v696q-97 -11 -163 -82t-66 -167zM538 450q0 95 -65 166.5t-159 82.5v-696q95 11 159.5 81.5t64.5 168.5v197z" />
<glyph unicode="&#xd7;" horiz-adv-x="596" d="M182 47l116 116l116 -116l152 151l-116 116l116 117l-151 151l-117 -116l-116 116l-152 -151l117 -117l-116 -116z" />
<glyph unicode="&#xd8;" d="M30 450v-197q0 -89 54 -156l-35 -98h210v698q-97 -10 -163 -80.5t-66 -166.5zM516 699h-202v-699q94 11 159 82.5t65 170.5v197q0 87 -56 156z" />
<glyph unicode="&#xd9;" horiz-adv-x="573" d="M180 856v51h212v-151h-112zM543 701h-229v-700q97 11 163 84t66 172v444zM259 701h-229v-444q0 -99 66 -172t163 -84v700z" />
<glyph unicode="&#xda;" horiz-adv-x="573" d="M408 856v50h-212v-150h112zM543 701h-229v-700q97 11 163 84t66 172v444zM259 701h-229v-444q0 -99 66 -172t163 -84v700z" />
<glyph unicode="&#xdb;" horiz-adv-x="573" d="M325 965h-79l-187 -186q0 -6 2 -24h185v48h80v-48h186q1 8 1 24zM543 701h-229v-700q97 11 163 84t66 172v444zM259 701h-229v-444q0 -99 66 -172t163 -84v700z" />
<glyph unicode="&#xdc;" horiz-adv-x="573" d="M259 755v150h-212v-150h212zM526 755v150h-212v-150h212zM543 701h-229v-700q97 11 163 84t66 172v444zM259 701h-229v-444q0 -99 66 -172t163 -84v700z" />
<glyph unicode="&#xdf;" horiz-adv-x="610" d="M30 2h264v697h-214v-483h-50v-214zM404 699h-60v-697h44q79 0 135.5 55.5t56.5 136.5q0 53 -29 99.5t-76 70.5q47 21 76 64.5t29 95.5q0 74 -51 124.5t-125 50.5z" />
<glyph unicode="&#xe0;" d="M178 690v51h212v-151h-112zM538 278q0 106 -74.5 181.5t-176.5 75.5q-17 0 -35 -3l144 -532h142v278zM341 0l-139 520q-76 -27 -124 -93t-48 -149v-21q0 -107 75 -182t182 -75h54z" />
<glyph unicode="&#xe1;" d="M407 690v50h-212v-150h112zM538 278q0 106 -74.5 181.5t-176.5 75.5q-17 0 -35 -3l144 -532h142v278zM341 0l-139 520q-76 -27 -124 -93t-48 -149v-21q0 -107 75 -182t182 -75h54z" />
<glyph unicode="&#xe2;" d="M323 800h-79l-187 -186q0 -6 2 -24h185v48h80v-48h186q1 8 1 24zM538 278q0 106 -74.5 181.5t-176.5 75.5q-17 0 -35 -3l144 -532h142v278zM341 0l-139 520q-76 -27 -124 -93t-48 -149v-21q0 -107 75 -182t182 -75h54z" />
<glyph unicode="&#xe3;" d="M172 590l-100 -100v250h324l100 100v-250h-324zM538 278q0 106 -74.5 181.5t-176.5 75.5q-17 0 -35 -3l144 -532h142v278zM341 0l-139 520q-76 -27 -124 -93t-48 -149v-21q0 -107 75 -182t182 -75h54z" />
<glyph unicode="&#xe4;" d="M256 590v150h-212v-150h212zM523 590v150h-212v-150h212zM538 278q0 106 -74.5 181.5t-176.5 75.5q-17 0 -35 -3l144 -532h142v278zM341 0l-139 520q-76 -27 -124 -93t-48 -149v-21q0 -107 75 -182t182 -75h54z" />
<glyph unicode="&#xe5;" d="M323 713v-57h-77v57h77zM288 779h-9q-40 0 -68 -28t-28 -68q0 -38 28 -66t68 -28h9q40 0 68 28t28 66q0 40 -28 68t-68 28zM538 278q0 106 -74.5 181.5t-176.5 75.5q-17 0 -35 -3l144 -532h142v278zM341 0l-139 520q-76 -27 -124 -93t-48 -149v-21q0 -107 75 -182 t182 -75h54z" />
<glyph unicode="&#xe6;" horiz-adv-x="936" d="M906 213h-279v320q-92 -9 -159 -79q-75 81 -181 81q-11 0 -33 -2l142 -533h259q93 0 163.5 61t87.5 152zM341 0l-138 521q-77 -26 -125 -92.5t-48 -150.5v-21q0 -107 75 -182t182 -75h54zM906 278q0 100 -64 172.5t-160 82.5v-265h224v10z" />
<glyph unicode="&#xe7;" d="M258 -212h150v243q106 59 130 182h-279v320q-97 -11 -163 -83.5t-66 -171.5v-21q0 -99 65.5 -171.5t162.5 -83.5v-114h-100zM538 322q-16 84 -78 143t-146 68v-211h224z" />
<glyph unicode="&#xe8;" d="M178 690v51h212v-151h-112zM538 213h-279v320q-97 -11 -163 -83.5t-66 -171.5v-278h257q93 0 163.5 61t87.5 152zM538 278q0 100 -64 172.5t-160 82.5v-265h224v10z" />
<glyph unicode="&#xe9;" d="M407 690v50h-212v-150h112zM538 213h-279v320q-97 -11 -163 -83.5t-66 -171.5v-278h257q93 0 163.5 61t87.5 152zM538 278q0 100 -64 172.5t-160 82.5v-265h224v10z" />
<glyph unicode="&#xea;" d="M323 800h-79l-187 -186q0 -6 2 -24h185v48h80v-48h186q1 8 1 24zM538 213h-279v320q-97 -11 -163 -83.5t-66 -171.5v-278h257q93 0 163.5 61t87.5 152zM538 278q0 100 -64 172.5t-160 82.5v-265h224v10z" />
<glyph unicode="&#xeb;" d="M256 590v150h-212v-150h212zM523 590v150h-212v-150h212zM538 213h-279v320q-97 -11 -163 -83.5t-66 -171.5v-278h257q93 0 163.5 61t87.5 152zM538 278q0 100 -64 172.5t-160 82.5v-265h224v10z" />
<glyph unicode="&#xec;" horiz-adv-x="273" d="M30 535v-535h213v535h-213zM30 690v50h212v-150h-112z" />
<glyph unicode="&#xed;" horiz-adv-x="273" d="M30 535v-535h213v535h-213zM242 690v50h-212v-150h112z" />
<glyph unicode="&#xee;" horiz-adv-x="514" d="M148 535v-535h213v535h-213zM296 800h-79l-187 -186q0 -6 2 -24h185v48h80v-48h186q1 8 1 24z" />
<glyph unicode="&#xef;" horiz-adv-x="539" d="M164 535v-535h213v535h-213zM242 590v150h-212v-150h212zM509 590v150h-212v-150h212z" />
<glyph unicode="&#xf1;" horiz-adv-x="573" d="M174 590l-100 -100v250h324l100 100v-250h-324zM543 0h-229v533q97 -10 163 -83t66 -172v-278zM259 0h-229v278q0 99 66 171.5t163 83.5v-533z" />
<glyph unicode="&#xf2;" d="M178 690v51h212v-151h-112zM30 278v-21q0 -99 66 -172t163 -84v532q-97 -11 -163 -83.5t-66 -171.5zM538 278q0 98 -65 171t-159 84v-532q94 11 159 84t65 172v21z" />
<glyph unicode="&#xf3;" d="M407 690v50h-212v-150h112zM30 278v-21q0 -99 66 -172t163 -84v532q-97 -11 -163 -83.5t-66 -171.5zM538 278q0 98 -65 171t-159 84v-532q94 11 159 84t65 172v21z" />
<glyph unicode="&#xf4;" d="M323 800h-79l-187 -186q0 -6 2 -24h185v48h80v-48h186q1 8 1 24zM30 278v-21q0 -99 66 -172t163 -84v532q-97 -11 -163 -83.5t-66 -171.5zM538 278q0 98 -65 171t-159 84v-532q94 11 159 84t65 172v21z" />
<glyph unicode="&#xf5;" d="M172 590l-100 -100v250h324l100 100v-250h-324zM30 278v-21q0 -99 66 -172t163 -84v532q-97 -11 -163 -83.5t-66 -171.5zM538 278q0 98 -65 171t-159 84v-532q94 11 159 84t65 172v21z" />
<glyph unicode="&#xf6;" d="M256 590v150h-212v-150h212zM523 590v150h-212v-150h212zM30 278v-21q0 -99 66 -172t163 -84v532q-97 -11 -163 -83.5t-66 -171.5zM538 278q0 98 -65 171t-159 84v-532q94 11 159 84t65 172v21z" />
<glyph unicode="&#xf7;" horiz-adv-x="561" d="M531 462h-501v-214h501v214zM392 516v150h-212v-150h212zM392 42v150h-212v-150h212z" />
<glyph unicode="&#xf8;" d="M30 278v-21q0 -109 80 -186l-26 -71h175v533q-97 -11 -163 -83.5t-66 -171.5zM491 535h-177v-534q94 11 159 84t65 172v21q0 105 -75 182z" />
<glyph unicode="&#xf9;" d="M178 690v51h212v-151h-112zM309 535v-534q97 11 163 84t66 172v278h-229zM254 535h-224v-278q0 -100 64 -172.5t160 -83.5v534z" />
<glyph unicode="&#xfa;" d="M405 690v50h-212v-150h112zM309 535v-534q97 11 163 84t66 172v278h-229zM254 535h-224v-278q0 -100 64 -172.5t160 -83.5v534z" />
<glyph unicode="&#xfb;" d="M323 800h-79l-187 -186q0 -6 2 -24h185v48h80v-48h186q1 8 1 24zM309 535v-534q97 11 163 84t66 172v278h-229zM254 535h-224v-278q0 -100 64 -172.5t160 -83.5v534z" />
<glyph unicode="&#xfc;" d="M256 590v150h-212v-150h212zM523 590v150h-212v-150h212zM309 535v-534q97 11 163 84t66 172v278h-229zM254 535h-224v-278q0 -100 64 -172.5t160 -83.5v534z" />
<glyph unicode="&#xff;" d="M116 0l-65 -64q31 -65 93 -104t137 -39q107 0 182 72.5t75 178.5v485h-213v-526q62 10 120 51l38 -38q-29 -29 -82 -50t-114 -21h-17q-43 0 -85.5 15.5t-68.5 39.5zM30 251q0 -100 71.5 -173t174.5 -78v529h-246v-278zM523 590v150h-212v-150h212zM256 590v150h-212v-150 h212z" />
<glyph unicode="&#x152;" horiz-adv-x="807" d="M777 210h-243v56h243v165h-243v54h243v215q-415 0 -486 1h-4q-106 0 -181.5 -74t-75.5 -177v-197q0 -106 75 -178.5t182 -72.5h490v208zM259 488h55v-279h-55v279z" />
<glyph unicode="&#x153;" horiz-adv-x="853" d="M823 213h-279v109h55v-54h224v10q0 107 -72.5 182t-178.5 75q-79 0 -145 -45q-66 45 -140 45q-107 0 -182 -75.5t-75 -181.5v-21q0 -107 75 -182t182 -75h285q93 0 163.5 61t87.5 152zM259 322h55v-109h-55v109z" />
<glyph unicode="&#x178;" d="M259 700h-229v-142q0 -73 41 -136.5t106 -92.5v-328h82v699zM314 700v-699h76v328q66 28 107 91.5t41 137.5v142h-224zM259 755v150h-212v-150h212zM526 755v150h-212v-150h212z" />
<glyph unicode="&#x192;" horiz-adv-x="843" d="M589 488v211q85 -9 146 -67.5t75 -143.5h-221zM534 699v-699q-16 -90 -87 -148.5t-166 -58.5q-93 0 -163.5 58.5t-87.5 148.5h275v444q0 99 66 171.5t163 83.5zM589 379h224q-16 -84 -78 -143t-146 -69v212z" />
<glyph unicode="&#x2c6;" horiz-adv-x="514" d="M296 701h-79l-187 -186q0 -6 2 -24h185v48h80v-48h186q1 8 1 24z" />
<glyph unicode="&#x2d8;" horiz-adv-x="511" d="M30 699l185 1v-48h80v48h186q-9 -85 -73.5 -143t-153.5 -58q-86 0 -150 57.5t-74 142.5z" />
<glyph unicode="&#x2d9;" horiz-adv-x="272" d="M242 551v150h-212v-150h212z" />
<glyph unicode="&#x2da;" horiz-adv-x="261" d="M170 633v-57h-77v57h77zM135 699h-9q-40 0 -68 -28t-28 -68q0 -38 28 -66t68 -28h9q40 0 68 28t28 66q0 40 -28 68t-68 28z" />
<glyph unicode="&#x2db;" horiz-adv-x="310" d="M180 -212h-150v212h150v-112h100z" />
<glyph unicode="&#x2dc;" horiz-adv-x="484" d="M130 553l-100 -100v250h324l100 100v-250h-324z" />
<glyph unicode="&#x2dd;" horiz-adv-x="524" d="M242 551v150h-212v-150h112v-100zM494 551v150h-212v-150h112v-100z" />
<glyph unicode="&#x2013;" horiz-adv-x="561" d="M531 458h-501v-214h501v214z" />
<glyph unicode="&#x2014;" horiz-adv-x="1054" d="M1024 458h-994v-214h994v214z" />
<glyph unicode="&#x2018;" horiz-adv-x="272" d="M30 603v-150h212v150h-112v100z" />
<glyph unicode="&#x2019;" horiz-adv-x="272" d="M242 603v-150h-212v150h112v100z" />
<glyph unicode="&#x201a;" horiz-adv-x="272" d="M242 -65v150h-212v-150h112v-100z" />
<glyph unicode="&#x201c;" horiz-adv-x="524" d="M282 603v-150h212v150h-112v100zM30 603v-150h212v150h-112v100z" />
<glyph unicode="&#x201d;" horiz-adv-x="524" d="M242 603v-150h-212v150h112v100zM494 603v-150h-212v150h112v100z" />
<glyph unicode="&#x201e;" horiz-adv-x="524" d="M242 -65v150h-212v-150h112v-100zM494 -65v150h-212v-150h112v-100z" />
<glyph unicode="&#x2022;" horiz-adv-x="312" d="M30 295q0 53 37 89.5t89 36.5t89 -36.5t37 -89.5t-37 -89.5t-89 -36.5t-89 36.5t-37 89.5z" />
<glyph unicode="&#x2026;" horiz-adv-x="939" d="M242 0v150h-212v-150h212zM576 0v150h-212v-150h212zM909 0v150h-212v-150h212z" />
<glyph unicode="&#x2030;" horiz-adv-x="1201" d="M567 699l-505 -697h214l505 697h-214zM30 545v-13q0 -60 39.5 -103.5t97.5 -49.5v319q-58 -7 -97.5 -50.5t-39.5 -102.5zM334 545q0 59 -39 102.5t-95 50.5v-319q56 6 95 50t39 103v13zM505 166v-13q0 -60 39.5 -103.5t97.5 -49.5v319q-58 -7 -97.5 -50.5t-39.5 -102.5z M809 166q0 59 -39 102.5t-95 50.5v-319q56 6 95 50t39 103v13zM867 166v-13q0 -60 39.5 -103.5t97.5 -49.5v319q-58 -7 -97.5 -50.5t-39.5 -102.5zM1171 166q0 59 -39 102.5t-95 50.5v-319q56 6 95 50t39 103v13z" />
<glyph unicode="&#x2039;" horiz-adv-x="344" d="M314 0v211h-55v91h55v212q-9 1 -27 1q-107 0 -182 -75.5t-75 -184.5q0 -107 75 -182t182 -75q7 0 27 2z" />
<glyph unicode="&#x203a;" horiz-adv-x="344" d="M30 0v211h55v91h-55v212q9 1 27 1q107 0 182 -75.5t75 -184.5q0 -107 -75 -182t-182 -75q-7 0 -27 2z" />
<glyph unicode="&#x20ac;" horiz-adv-x="628" d="M554 376h-240v321q-97 -11 -163 -83.5t-66 -171.5v-66h-55v-55h55v-64q0 -99 66 -172t163 -84v320h240v55zM598 442q0 99 -66 172t-163 83v-266h229v11zM369 268v-267q97 11 163 84t66 172v11h-229z" />
<glyph unicode="&#x2122;" horiz-adv-x="906" d="M582 700h-149l-133 -449h158zM498 252l122 448h137l8 -31l-123 -417h-144zM876 252h-189l96 347zM324 700h-294v-137h294v137zM107 252h137v276h-137v-276z" />
<glyph unicode="&#x2212;" horiz-adv-x="561" d="M531 458h-501v-214h501v214z" />
<glyph unicode="&#x25fc;" horiz-adv-x="535" d="M0 535h535v-535h-535v535z" />
<glyph unicode="&#xfb01;" horiz-adv-x="569" d="M30 0h229v699q-97 -11 -163 -83.5t-66 -171.5v-444zM538 379h-213v-377h214v376h-1v1zM535 488q-14 82 -71.5 140t-138.5 70v-210h210z" />
<glyph unicode="&#xfb02;" horiz-adv-x="565" d="M535 0h-213v700h213v-700zM30 443q0 99 66 171.5t163 83.5v-698h-229v443z" />
</font>
</defs>
</svg>
